<svg width="54" height="54" viewBox="0 0 54 54" fill="none" xmlns="http://www.w3.org/2000/svg">
<g clip-path="url(#clip0)">
<path d="M25.3055 54H28.6946C31.4356 54 33.6657 51.77 33.6657 49.0289V47.8824C34.8311 47.5101 35.9633 47.0401 37.051 46.4772L37.8635 47.2898C39.8314 49.2601 42.9838 49.2023 44.8946 47.289L47.2899 44.8938C49.204 42.9818 49.2591 39.8305 47.2892 37.8628L46.4773 37.0509C47.0402 35.9632 47.5101 34.8312 47.8825 33.6656H49.0289C51.7699 33.6656 54 31.4356 54 28.6946V25.3054C54 22.5644 51.7699 20.3344 49.0288 20.3344H47.8824C47.51 19.1689 47.0401 18.0368 46.4772 16.9491L47.2898 16.1367C49.2584 14.1701 49.2041 11.0185 47.2891 9.10564L44.8936 6.71024C42.9784 4.79239 39.8268 4.74451 37.8626 6.71087L37.0509 7.52266C35.9632 6.95988 34.8309 6.48991 33.6656 6.1175V4.97106C33.6656 2.23003 31.4356 0 28.6945 0H25.3054C22.5644 0 20.3344 2.23003 20.3344 4.97106V6.11761C19.169 6.48991 18.0368 6.95988 16.9491 7.52277L16.1366 6.71024C14.1687 4.73987 11.0163 4.79767 9.10554 6.71098L6.71024 9.10617C4.79609 11.0182 4.74103 14.1695 6.71087 16.1372L7.52277 16.9491C6.95988 18.0368 6.49002 19.1688 6.11761 20.3344H4.97116C2.23014 20.3344 0 22.5644 0 25.3054V28.6946C0 31.4356 2.23014 33.6656 4.97116 33.6656H6.11761C6.49002 34.8311 6.95988 35.9632 7.52277 37.0509L6.71024 37.8634C4.74156 39.83 4.79588 42.9816 6.71087 44.8945L9.10638 47.2899C11.0216 49.2077 14.1732 49.2556 16.1374 47.2892L16.9491 46.4774C18.0368 47.0402 19.169 47.5102 20.3344 47.8826V49.0292C20.3344 51.77 22.5644 54 25.3055 54ZM36.522 43.1547C35.011 44.0483 33.3847 44.7234 31.6883 45.1612C30.9897 45.3414 30.5016 45.9715 30.5016 46.693V49.0289C30.5016 50.0253 29.6908 50.8359 28.6945 50.8359H25.3054C24.3091 50.8359 23.4983 50.0253 23.4983 49.0289V46.693C23.4983 45.9715 23.0102 45.3414 22.3116 45.1612C20.6152 44.7234 18.9889 44.0483 17.4779 43.1547C16.8561 42.787 16.0646 42.887 15.5538 43.3978L13.8992 45.0525C13.1858 45.7667 12.0402 45.7501 11.3443 45.0532L8.94734 42.6563C8.25314 41.963 8.22994 40.8171 8.9467 40.1013L10.602 38.446C11.1127 37.9353 11.2127 37.1437 10.8451 36.522C9.9515 35.0111 9.2765 33.3848 8.8387 31.6883C8.65835 30.9897 8.02828 30.5017 7.30687 30.5017H4.97106C3.97469 30.5017 3.16396 29.691 3.16396 28.6947V25.3055C3.16396 24.3092 3.97469 23.4985 4.97106 23.4985H7.30687C8.02839 23.4985 8.65835 23.0104 8.8387 22.3119C9.2765 20.6154 9.95161 18.9891 10.8451 17.4782C11.2127 16.8565 11.1127 16.0649 10.602 15.5542L8.94734 13.8995C8.23205 13.1851 8.25071 12.0397 8.9467 11.3445L11.3435 8.94776C12.0382 8.25209 13.184 8.23173 13.8985 8.94713L15.5537 10.6025C16.0644 11.1132 16.8562 11.2132 17.4778 10.8456C18.9888 9.95193 20.6151 9.27682 22.3115 8.83902C23.0101 8.65877 23.4982 8.0287 23.4982 7.30719V4.97106C23.4982 3.9747 24.309 3.16406 25.3053 3.16406H28.6944C29.6907 3.16406 30.5015 3.9747 30.5015 4.97106V7.30698C30.5015 8.02849 30.9896 8.65856 31.6882 8.83881C33.3846 9.27661 35.0109 9.95172 36.5219 10.8454C37.1438 11.2129 37.9353 11.1129 38.446 10.6022L40.1006 8.94755C40.814 8.23331 41.9597 8.24987 42.6555 8.94681L45.0525 11.3437C45.7466 12.037 45.7699 13.1827 45.0531 13.8987L43.3978 15.554C42.8871 16.0647 42.7871 16.8563 43.1546 17.478C44.0483 18.9889 44.7233 20.6152 45.1611 22.3117C45.3414 23.0103 45.9715 23.4983 46.6929 23.4983H49.0288C50.0252 23.4984 50.8359 24.3091 50.8359 25.3054V28.6946C50.8359 29.6909 50.0252 30.5016 49.0288 30.5016H46.693C45.9715 30.5016 45.3415 30.9897 45.1612 31.6882C44.7234 33.3847 44.0483 35.011 43.1548 36.5219C42.7872 37.1436 42.8872 37.9352 43.3979 38.4459L45.0526 40.1006C45.7678 40.815 45.7492 41.9604 45.0532 42.6556L42.6564 45.0523C41.9617 45.748 40.8159 45.7684 40.1014 45.053L38.4462 43.3976C38.0699 43.0214 37.287 42.7022 36.522 43.1547Z" fill="#E60005"/>
<path d="M26.9999 38.7493C33.4785 38.7493 38.7491 33.4787 38.7491 27.0001C38.7491 20.5216 33.4785 15.2509 26.9999 15.2509C20.5213 15.2509 15.2507 20.5216 15.2507 27.0001C15.2507 33.4787 20.5213 38.7493 26.9999 38.7493ZM26.9999 18.415C31.7339 18.415 35.5851 22.2663 35.5851 27.0001C35.5851 31.734 31.7338 35.5853 26.9999 35.5853C22.266 35.5853 18.4147 31.734 18.4147 27.0001C18.4147 22.2663 22.2659 18.415 26.9999 18.415Z" fill="#E60005"/>
</g>
<defs>
<clipPath id="clip0">
<rect width="54" height="54" fill="white" transform="matrix(-1 0 0 1 54 0)"/>
</clipPath>
</defs>
</svg>
