<svg width="63" height="40" viewBox="0 0 63 40" fill="none" xmlns="http://www.w3.org/2000/svg">
<path d="M43.1566 1.93048L60.7598 19.9123L43.1566 37.8942V27.4837L18.9283 27.4837V12.341L43.1566 12.341V1.93048Z" fill="white"/>
<path d="M43.1569 39.787H42.3997C41.6904 39.4253 41.2494 38.6903 41.2641 37.8942V29.3765L18.9287 29.3765C18.4222 29.4068 17.9311 29.1963 17.6037 28.8086C17.247 28.4592 17.0431 27.9829 17.0358 27.4837L17.0358 12.341C17.0358 11.2956 17.8832 10.4481 18.9287 10.4481L41.2641 10.4481V1.93048C41.2849 1.16838 41.7206 0.478561 42.3997 0.132202C43.1251 -0.154015 43.9515 0.0338376 44.4819 0.605366L62.1799 18.5872C62.8547 19.3417 62.8547 20.4828 62.1799 21.2373L44.4819 39.2191C44.1324 39.5758 43.6562 39.78 43.1569 39.787ZM20.8215 25.5908L43.1569 25.5908C44.2024 25.5908 45.0498 26.4383 45.0498 27.4837V33.2567L58.1103 19.9123L45.0498 6.56792V12.341C45.0498 13.3864 44.2024 14.2338 43.1569 14.2338L20.8215 14.2338V25.5908Z" fill="#E60005"/>
<path d="M13.25 10.4482C14.2954 10.4482 15.1428 11.2957 15.1428 12.3411L15.1428 27.4838C15.1428 28.5292 14.2954 29.3766 13.25 29.3766C12.2045 29.3766 11.3571 28.5292 11.3571 27.4838L11.3571 12.3411C11.3571 11.2957 12.2045 10.4482 13.25 10.4482Z" fill="#131313"/>
<path d="M7.57187 10.4482C8.61729 10.4482 9.46471 11.2957 9.46471 12.3411L9.46471 27.4838C9.46471 28.5292 8.61729 29.3766 7.57187 29.3766C6.52645 29.3766 5.67903 28.5292 5.67903 27.4838L5.67903 12.3411C5.67903 11.2957 6.52645 10.4482 7.57187 10.4482Z" fill="#131313"/>
<path d="M1.89284 10.4479C2.93825 10.4479 3.78567 11.2954 3.78567 12.3408L3.78567 27.4835C3.78567 28.5289 2.93825 29.3763 1.89284 29.3763C0.84742 29.3763 0 28.5289 0 27.4835L0 12.3408C0 11.2954 0.84742 10.4479 1.89284 10.4479Z" fill="#131313"/>
</svg>
