<svg width="86" height="64" viewBox="0 0 86 64" fill="none" xmlns="http://www.w3.org/2000/svg">
<path d="M82.5742 49.1198C82.3379 48.4017 82.6923 47.6836 83.4011 47.3245C84.1099 47.0852 84.8187 47.4442 85.1731 48.1623C85.4094 48.7607 85.5275 49.2395 85.6456 49.8379C85.7638 50.4363 85.7638 51.0348 85.7638 51.6332C85.7638 54.3859 84.7006 56.8993 82.9286 58.6946C81.1566 60.4899 78.6759 61.567 75.9588 61.567C73.3599 61.567 71.1154 60.6095 69.3434 58.934C67.5714 57.2584 66.3901 54.9844 66.1539 52.471C66.0357 51.7529 66.6264 51.0348 67.3352 51.0348C68.044 51.0348 68.7528 51.5135 68.7528 52.2316C68.8709 54.0269 69.8159 55.7025 70.9973 56.8993C72.2967 58.0962 73.9506 58.8143 75.8407 58.8143C77.8489 58.8143 79.6209 57.9765 80.9204 56.6599C82.2198 55.3434 83.0467 53.5481 83.0467 51.5135C83.0467 51.0348 83.0467 50.6757 82.9286 50.197C82.9286 49.9576 82.8105 49.4789 82.5742 49.1198Z" fill="#E31E24"/>
<path fill-rule="evenodd" clip-rule="evenodd" d="M43.9451 51.1544C42.0549 49.1198 40.1648 47.2048 38.2747 45.2899C35.9121 42.7765 36.3846 42.5371 33.0769 41.9387C29.6511 41.3403 27.761 41.1009 24.3351 40.3828C23.5082 40.2631 20.7912 39.9041 20.3187 39.0663C19.6099 37.7497 19.728 35.2363 22.2088 35.2363C25.8709 35.356 29.6511 35.4757 33.195 35.5954C34.8489 35.5954 34.4945 35.5954 34.6126 33.6804C34.8489 31.0474 35.2033 28.2946 35.4396 25.9009C35.4396 25.6615 35.4396 25.4222 35.5577 25.1828C35.9121 23.7466 38.7472 24.345 38.7472 25.3025C38.7472 25.5419 38.7472 25.6615 38.7472 25.9009C38.8654 27.8159 38.9835 30.0899 38.9835 32.3639C39.2198 38.9466 40.4011 40.8615 44.4176 45.6489C46.4258 48.0426 48.4341 49.4789 49.3791 51.6332C50.3242 53.9072 49.4973 53.5481 47.489 53.3088C45.9533 53.0694 45.717 53.0694 43.9451 51.1544ZM61.783 47.6836C62.3736 45.5293 62.9643 43.3749 63.555 41.2206C64.2638 38.5875 64.2638 39.0663 63.4368 36.5529C63.2006 35.7151 63.0824 35.5954 62.8462 34.8773C62.4918 33.6804 61.783 32.8426 62.8462 32.3639C64.2638 31.6458 65.9176 31.1671 67.2171 30.2096C69.4616 28.4143 69.2253 28.2946 68.2802 25.3025C67.3352 22.3104 71.7061 19.9167 73.0055 23.7466C73.9506 26.3797 74.8956 29.0127 75.8407 31.6458C76.6676 33.9198 77.4945 37.8694 76.4313 40.2631C70.0522 44.3324 58.239 60.2505 61.783 47.6836Z" fill="#CCF5FC"/>
<path fill-rule="evenodd" clip-rule="evenodd" d="M70.7612 47.4442C72.4151 43.7339 74.3052 41.5796 76.6678 40.1434C78.6761 41.5796 80.0937 42.5371 81.9838 43.9733C83.4014 45.1701 81.3931 46.2473 79.9755 47.8032C78.7942 48.641 78.2035 48.2819 76.786 48.1623C74.0689 47.6835 73.3601 47.6835 70.7612 47.4442Z" fill="#CCF5FC"/>
<path fill-rule="evenodd" clip-rule="evenodd" d="M39.2199 34.7575C38.9837 34.8772 50.5606 36.1937 52.3326 36.074C56.1128 35.715 48.3161 42.178 48.6705 48.0425C48.9068 51.5134 49.143 50.6756 47.1348 48.5213C46.3079 47.6835 45.3628 46.726 44.4177 45.5292C43.7089 44.5717 43.0002 43.8536 42.5276 43.1355C40.7557 40.3827 39.4562 37.3906 39.2199 34.7575C39.2199 34.8772 39.2199 34.7575 39.2199 34.7575Z" fill="#CCF5FC"/>
<path fill-rule="evenodd" clip-rule="evenodd" d="M62.7283 25.6615C63.7915 25.3025 64.8547 25.7812 65.3272 26.8584L66.7448 30.4489C65.5635 31.0473 64.3821 31.6458 63.2008 32.2442L61.6651 28.2946C61.1926 27.2174 61.6651 26.0206 62.7283 25.6615Z" fill="#CCF5FC"/>
<path d="M63.2007 26.978C62.1376 27.3371 63.5551 29.7308 63.7914 30.3292L64.9727 29.7308C64.7365 29.1324 64.2639 26.4993 63.2007 26.978ZM78.0854 39.4253C83.2832 42.8961 86.3546 44.2127 80.6843 48.7607C78.676 50.3166 71.3519 48.8804 68.9892 48.641C63.6733 53.7875 61.7832 54.5056 55.8766 54.9843C50.5606 55.4631 43.2364 53.3087 38.2749 55.2237C36.7392 55.8221 33.904 52.2316 41.4645 51.9922H41.5826C41.5826 50.6757 39.3381 48.282 38.2749 47.3245C36.9754 46.2473 20.0826 44.9308 20.0826 54.6253C20.0826 56.4205 17.3655 56.4205 17.3655 54.6253C17.3655 45.7686 26.3436 43.9733 32.7227 44.093H35.2035C32.2502 42.0583 20.6732 42.7765 19.1375 39.7843C17.8381 37.1513 19.1375 34.0395 22.2089 34.0395C25.871 34.0395 29.5331 34.2788 33.1952 34.3985L33.3134 33.6804C33.7859 29.7308 33.4315 24.1056 35.9123 23.2678C35.9123 19.5576 35.5579 6.39223 35.9123 3.63947C34.7309 3.75916 32.3683 4.47727 32.132 2.682C32.0139 1.96389 32.6046 1.24578 33.3134 1.12609C50.7969 -1.02824 66.6266 1.48515 71.1156 20.3954C73.3601 20.6347 74.3051 22.9088 75.1321 25.0631C76.6678 29.4914 79.2667 34.3985 78.0854 39.4253ZM74.5414 43.7339C73.9508 44.452 73.3601 45.2898 72.8876 46.2473C76.7859 46.6064 78.4398 47.8032 81.0387 44.8111H81.1568L76.6678 41.5796C75.8409 42.2977 75.1321 42.8961 74.5414 43.7339ZM38.5112 23.2678C40.9919 24.345 40.165 29.3717 40.4013 33.6804L52.0963 34.7576C58.948 34.0395 49.6156 43.3749 49.97 47.9229C50.2062 50.915 50.4425 49.9576 50.915 52.2316C53.9864 52.4709 56.9397 52.2316 59.7749 51.5135C59.5387 47.3245 63.437 41.1009 62.3738 37.63C61.9013 36.1938 60.1293 32.8426 61.3106 31.6458L60.9562 30.6883C60.2474 31.4064 58.948 33.2017 57.8848 32.0048C56.7035 30.6883 59.3024 29.0127 60.1293 28.1749C59.3024 24.2253 64.9727 22.43 66.5084 26.2599L67.0991 27.9355C67.2172 28.2946 67.2172 28.5339 67.4535 28.0552C68.0442 26.4993 65.3271 23.5072 68.3986 21.1135C64.8546 5.55443 52.8051 2.32294 38.393 3.28042L38.5112 23.2678ZM43.5908 42.4174L47.3711 46.8457C47.7255 43.1355 49.8518 40.2631 51.6238 37.5103L40.8738 36.4332C41.4645 38.4678 42.4095 40.3828 43.5908 42.4174ZM40.165 45.2898C43.4727 47.9229 44.654 51.6331 48.0799 51.9922C47.1348 49.9576 45.0084 48.4016 43.4727 46.6064C37.0936 38.8268 37.9205 35.8347 37.3298 25.6615L36.7392 25.5418L35.7941 34.5182C35.676 36.7922 35.676 36.7922 33.0771 36.7922L22.0908 36.4332C21.0276 36.4332 19.7282 38.4678 23.9809 38.8268C27.5249 39.0662 29.7694 39.7843 33.1952 40.3828C37.3298 41.3402 37.9205 42.8961 40.165 45.2898ZM49.0249 52.1119C49.143 51.9922 49.0249 51.9922 49.0249 52.1119V52.1119ZM64.9727 41.5796L62.1376 51.1544C62.7282 51.2741 73.7145 40.5024 75.4865 39.3056C75.4865 36.7922 76.3134 36.5528 74.7777 32.0048C73.5964 28.5339 72.0606 21.5922 70.0524 23.3875C68.3985 25.0631 72.6513 26.8584 69.2255 30.3292C68.0442 31.6458 66.0359 32.3639 64.3821 33.2017C63.6733 33.441 63.7914 33.3213 64.1458 34.1591C65.209 36.6725 65.7996 38.7072 64.9727 41.5796Z" fill="black"/>
<path d="M28.5878 48.282C30.5961 48.282 32.4862 49.1198 33.7856 50.4363C35.0851 51.7528 35.912 53.6678 35.912 55.7025C35.912 57.7371 35.0851 59.6521 33.7856 60.9686C32.4862 62.2851 30.5961 63.1229 28.5878 63.1229C26.5796 63.1229 24.6895 62.2851 23.39 60.9686C22.0906 59.6521 21.2636 57.7371 21.2636 55.7025C21.2636 53.6678 22.0906 51.7528 23.39 50.4363C24.6895 49.2395 26.5796 48.282 28.5878 48.282ZM32.0136 52.471C31.1867 51.6332 30.0054 51.0347 28.706 51.0347C27.4065 51.0347 26.2252 51.5135 25.3983 52.471C24.5713 53.3088 23.9807 54.5056 23.9807 55.8221C23.9807 57.1387 24.4532 58.3355 25.3983 59.1733C26.2252 60.0111 27.4065 60.6095 28.706 60.6095C30.0054 60.6095 31.1867 60.1308 32.0136 59.1733C32.8406 58.3355 33.4312 57.1387 33.4312 55.8221C33.3131 54.5056 32.8406 53.3088 32.0136 52.471Z" fill="#E31E24"/>
<path d="M77.4945 51.8726C77.7308 51.1544 78.4396 50.7954 79.1484 50.9151C79.8572 51.0348 80.2116 51.8726 80.0934 52.5907C79.8572 53.5481 79.2665 54.3859 78.4396 54.9844C77.6127 55.5828 76.6676 55.9418 75.7225 55.9418C74.7775 55.9418 73.8324 55.5828 73.1237 55.104C72.4149 54.6253 71.8242 53.7875 71.4698 52.9497C71.2335 52.2316 71.5879 51.5135 72.2967 51.1544C73.0055 50.9151 73.7143 51.2741 74.0687 51.9922C74.1868 52.3513 74.4231 52.7103 74.7775 52.9497C75.1319 53.1891 75.4863 53.3088 75.8407 53.3088C76.3132 53.3088 76.6676 53.1891 77.022 52.9497C77.1401 52.7103 77.3764 52.3513 77.4945 51.8726Z" fill="#E31E24"/>
<path d="M28.5881 52.3513C29.5331 52.3513 30.4782 52.7103 31.0689 53.4284C31.6595 54.0268 32.132 54.9843 32.132 55.9418C32.132 56.8993 31.7777 57.8568 31.0689 58.4552C30.4782 59.0536 29.5331 59.5324 28.5881 59.5324C27.643 59.5324 26.698 59.1733 26.1073 58.4552C25.5167 57.8568 25.0441 56.8993 25.0441 55.9418C25.0441 54.9843 25.3985 54.0268 26.1073 53.4284C26.8161 52.7103 27.643 52.3513 28.5881 52.3513Z" fill="#E31E24"/>
<path d="M25.7528 15.1292C26.4616 15.1292 27.0522 15.7276 27.0522 16.4457C27.0522 17.1639 26.4616 17.7623 25.7528 17.7623H1.29945C0.59066 17.882 0 17.1639 0 16.4457C0 15.7276 0.59066 15.1292 1.29945 15.1292H25.7528Z" fill="black"/>
<path d="M28.1156 20.9938C28.8244 20.9938 29.4151 21.5922 29.4151 22.3103C29.4151 23.0284 28.8244 23.6268 28.1156 23.6268H14.2942C13.5854 23.6268 12.9948 23.0284 12.9948 22.3103C12.9948 21.5922 13.5854 20.9938 14.2942 20.9938H28.1156Z" fill="black"/>
<path d="M25.7528 27.3371C26.4616 27.3371 27.0523 27.9355 27.0523 28.6536C27.0523 29.3717 26.4616 29.9702 25.7528 29.9702H6.8517C6.14291 29.9702 5.55225 29.3717 5.55225 28.6536C5.55225 27.9355 6.14291 27.3371 6.8517 27.3371H25.7528Z" fill="black"/>
<path d="M79.6208 49.3592C80.0933 50.0773 80.3296 50.9151 80.3296 51.8726C80.3296 53.1891 79.857 54.2663 79.0301 55.1041C78.2032 55.9419 77.14 56.4206 75.8405 56.4206C74.5411 56.4206 73.4779 55.9419 72.651 55.1041C71.7059 54.2663 71.2334 53.0694 71.2334 51.8726C71.2334 50.7954 71.5878 49.7182 72.2966 49.0001C72.7691 49.0001 73.2416 49.1198 73.596 49.1198C74.3048 49.2395 75.1318 49.2395 76.5493 49.4789H76.6675C76.9037 49.4789 77.2581 49.4789 77.4944 49.5985C78.2032 49.5985 78.7939 49.5986 79.6208 49.3592Z" fill="#E31E24"/>
</svg>
