<svg width="65" height="53" viewBox="0 0 65 53" fill="none" xmlns="http://www.w3.org/2000/svg">
<path d="M11.7689 50.8511C17.5676 50.8511 22.2683 46.1495 22.2683 40.3498C22.2683 34.55 17.5676 29.8484 11.7689 29.8484C5.97027 29.8484 1.26953 34.55 1.26953 40.3498C1.26953 46.1495 5.97027 50.8511 11.7689 50.8511Z" fill="#B8ECBC"/>
<path d="M11.7689 23.1514C17.5676 23.1514 22.2683 18.4498 22.2683 12.6501C22.2683 6.8504 17.5676 2.1488 11.7689 2.1488C5.97027 2.1488 1.26953 6.8504 1.26953 12.6501C1.26953 18.4498 5.97027 23.1514 11.7689 23.1514Z" fill="#E60005"/>
<path d="M63.7305 20.8479H29.68L29.55 4.45239H63.6004L63.7305 20.8479Z" fill="#FAF7F5"/>
<path d="M40.8815 48.5475H29.68L29.55 32.152H63.6004L63.7305 48.5475H52.3991" fill="#FAF7F5"/>
<path d="M63.6005 30.8826H29.5501C29.2116 30.8826 28.8871 31.0176 28.6488 31.258C28.4104 31.4983 28.2779 31.8237 28.2805 32.1621L28.4105 48.5576C28.4161 49.2548 28.9828 49.8171 29.6801 49.8171H40.8814C41.5824 49.8171 42.1509 49.2486 42.1509 48.5476C42.1509 47.8466 41.5824 47.2781 40.8814 47.2781H30.9394L30.8296 33.4216H62.3409L62.4507 47.2781H52.399C51.6979 47.2781 51.1294 47.8466 51.1294 48.5476C51.1294 49.2486 51.6979 49.8171 52.399 49.8171H63.7305C64.069 49.8171 64.3935 49.682 64.6318 49.4417C64.8702 49.2014 65.0027 48.876 65.0001 48.5376L64.8701 32.1421C64.8645 31.4447 64.2978 30.8826 63.6005 30.8826Z" fill="black"/>
<path d="M47.836 48.0617C47.6314 47.5708 47.1279 47.2508 46.5956 47.2796C46.0676 47.3081 45.6034 47.6739 45.4493 48.179C45.2974 48.6768 45.4756 49.2395 45.8909 49.5548C46.3206 49.8812 46.9187 49.9006 47.3688 49.6029C47.8688 49.2722 48.0619 48.6133 47.836 48.0617Z" fill="black"/>
<path d="M11.7688 28.5792C5.27947 28.5792 0 33.8595 0 40.3499C0 46.8404 5.27947 52.1207 11.7688 52.1207C18.2581 52.1207 23.5377 46.8404 23.5377 40.3499C23.5377 33.8595 18.2581 28.5792 11.7688 28.5792ZM11.7688 49.5817C6.67951 49.5817 2.53906 45.4403 2.53906 40.3499C2.53906 35.2596 6.67951 31.1182 11.7688 31.1182C16.8582 31.1182 20.9987 35.2596 20.9987 40.3499C20.9987 45.4403 16.8582 49.5817 11.7688 49.5817Z" fill="black"/>
<path d="M11.7688 0.879456C5.27947 0.879456 0 6.15969 0 12.6502C0 19.1405 5.27947 24.4209 11.7688 24.4209C18.2581 24.4209 23.5377 19.1405 23.5377 12.6502C23.5377 6.15969 18.2581 0.879456 11.7688 0.879456ZM11.7688 21.8818C6.67951 21.8818 2.53906 17.7405 2.53906 12.6502C2.53906 7.55973 6.67951 3.41839 11.7688 3.41839C16.8582 3.41839 20.9987 7.55973 20.9987 12.6502C20.9987 17.7405 16.8582 21.8818 11.7688 21.8818Z" fill="black"/>
<path d="M15.0852 9.33321C14.5896 8.83733 13.7856 8.83746 13.2899 9.33334L11.7688 10.8546L10.2479 9.33334C9.75245 8.83771 8.94846 8.83759 8.45258 9.33321C7.95683 9.82884 7.9567 10.6327 8.45245 11.1286L9.97373 12.6501L8.45245 14.1716C7.9567 14.6674 7.95683 15.4713 8.45258 15.967C8.70039 16.215 9.02526 16.3389 9.35014 16.3389C9.67501 16.3389 10 16.2148 10.2478 15.9669L11.7688 14.4456L13.2899 15.9669C13.5377 16.2148 13.8627 16.3389 14.1876 16.3389C14.5124 16.3389 14.8373 16.2148 15.0851 15.967C15.5809 15.4714 15.581 14.6675 15.0852 14.1716L13.564 12.6501L15.0852 11.1286C15.5811 10.6328 15.581 9.82896 15.0852 9.33321Z" fill="white"/>
<path d="M29.6801 22.1176H63.7305C64.069 22.1176 64.3935 21.9825 64.6318 21.7422C64.8702 21.5019 65.0027 21.1765 65.0001 20.838L64.8701 4.44255C64.8645 3.74532 64.2978 3.18304 63.6005 3.18304H29.5501C29.2116 3.18304 28.8871 3.31825 28.6488 3.55844C28.4104 3.79877 28.2779 4.12415 28.2805 4.46261L28.4105 20.8581C28.4161 21.5553 28.9828 22.1176 29.6801 22.1176ZM62.341 5.72198L62.4508 19.5784H30.9396L30.8297 5.72198H62.341Z" fill="black"/>
<path d="M37.5203 11.2471H58.0629C58.7641 11.2471 59.3325 10.6786 59.3325 9.97754C59.3325 9.2765 58.7641 8.70801 58.0629 8.70801H37.5203C36.8192 8.70801 36.2507 9.2765 36.2507 9.97754C36.2507 10.6786 36.8192 11.2471 37.5203 11.2471Z" fill="black"/>
<path d="M37.5203 16.5923H50.7569C51.4581 16.5923 52.0264 16.0239 52.0264 15.3228C52.0264 14.6217 51.4581 14.0532 50.7569 14.0532H37.5203C36.8192 14.0532 36.2507 14.6217 36.2507 15.3228C36.2507 16.0239 36.8192 16.5923 37.5203 16.5923Z" fill="black"/>
<path d="M37.5203 39.3558H58.0629C58.7641 39.3558 59.3325 38.7873 59.3325 38.0862C59.3325 37.3851 58.7641 36.8167 58.0629 36.8167H37.5203C36.8192 36.8167 36.2507 37.3851 36.2507 38.0862C36.2507 38.7873 36.8192 39.3558 37.5203 39.3558Z" fill="black"/>
<path d="M52.0264 43.4313C52.0264 42.7303 51.4581 42.1618 50.7569 42.1618H37.5203C36.8192 42.1618 36.2507 42.7303 36.2507 43.4313C36.2507 44.1324 36.8192 44.7009 37.5203 44.7009H50.7569C51.458 44.7009 52.0264 44.1325 52.0264 43.4313Z" fill="black"/>
<path d="M14.9799 37.3369C14.4122 36.9261 13.6184 37.0533 13.2072 37.6212L11.1882 40.4112L10.1787 39.4474C9.67178 38.9632 8.86804 38.9816 8.38384 39.4889C7.89964 39.996 7.91817 40.7996 8.42535 41.2838L10.4871 43.2523C10.7242 43.4788 11.0387 43.6037 11.3636 43.6037C11.402 43.6037 11.4406 43.6019 11.4791 43.5985C11.8442 43.5651 12.1772 43.3755 12.3921 43.0784L15.2641 39.1097C15.6753 38.5418 15.5481 37.7481 14.9799 37.3369Z" fill="black"/>
</svg>
