<svg width="48" height="60" viewBox="0 0 48 60" fill="none" xmlns="http://www.w3.org/2000/svg">
<path d="M10.7078 1.17199L5.05737 1.17188C3.27623 1.17188 1.83237 2.61527 1.83237 4.39582V55.6042C1.83237 57.3847 3.27623 58.8281 5.05737 58.8281L10.7078 58.828L42.4057 51.0591V8.94105" fill="#FAF7F5"/>
<path d="M42.2822 8.94105H5.41256C7.55826 8.94047 9.29756 7.20164 9.29756 5.05652C9.29756 2.91141 7.55814 1.17223 5.41232 1.17188H42.2822C44.174 1.17188 45.7493 2.52316 46.096 4.31156C46.1433 4.55297 46.1677 4.80164 46.1677 5.05605C46.1677 7.20152 44.4285 8.94105 42.2822 8.94105Z" fill="#CCF5FC"/>
<path d="M37.8596 51.059H42.2822C44.4285 51.059 46.1677 52.7984 46.1677 54.944C46.1677 55.1984 46.1432 55.4472 46.096 55.6884C45.7493 57.4768 44.174 58.8281 42.2822 58.8281H5.41232C7.55814 58.8278 9.29756 57.0886 9.29756 54.9435C9.29756 52.7985 7.55826 51.0595 5.41256 51.059H27.1471" fill="#CCF5FC"/>
<path d="M22.8283 35.7847C28.6848 35.7847 33.4325 31.0371 33.4325 25.1805C33.4325 19.324 28.6848 14.5764 22.8283 14.5764C16.9718 14.5764 12.2241 19.324 12.2241 25.1805C12.2241 31.0371 16.9718 35.7847 22.8283 35.7847Z" fill="#E60005"/>
<path d="M22.8284 20.3611L24.6516 23.1647L27.8652 24.0428L25.7784 26.6537L25.9413 30L22.8284 28.8101L19.7154 30L19.8783 26.6537L17.7915 24.0428L21.0052 23.1647L22.8284 20.3611Z" fill="#FAF7F5"/>
<path d="M43.5775 50.0552V9.94477C45.7407 9.37125 47.3396 7.39687 47.3396 5.05605C47.3396 4.72898 47.3079 4.40262 47.2464 4.08855C46.7871 1.71949 44.6994 0 42.2822 0H5.41233C5.40248 0 5.39276 0.000117187 5.38303 0.000351563C5.15463 0.000585938 4.96409 0.000820312 4.94358 0.00128906C2.54194 0.0628125 0.660492 1.99301 0.660492 4.39582V55.6043C0.660492 57.9703 2.58471 59.9418 4.9526 59.9989C4.98084 59.9995 5.29913 60.0001 5.32748 60.0001C5.34166 60.0001 5.35584 59.9998 5.36991 59.9993C5.38397 59.9998 5.39815 60.0001 5.41233 60.0001H42.2822C44.6994 60.0001 46.7871 58.2806 47.2458 55.9143C47.3079 55.5976 47.3396 55.2712 47.3396 54.9442C47.3396 52.6032 45.7407 50.6289 43.5775 50.0552ZM9.6783 2.34375H42.2822C43.5794 2.34375 44.6994 3.26508 44.946 4.53727C44.979 4.70578 44.9958 4.88027 44.9958 5.05605C44.9958 6.55219 43.7785 7.76918 42.2822 7.76918H9.67819C10.179 6.98484 10.4694 6.05391 10.4694 5.05652C10.4694 4.05914 10.179 3.12809 9.6783 2.34375ZM44.9454 55.4654C44.6993 56.7349 43.5794 57.6562 42.2821 57.6562H9.67819C10.1788 56.8719 10.4693 55.9409 10.4693 54.9435C10.4693 53.9462 10.1788 53.0152 9.67819 52.2309H27.147C27.7941 52.2309 28.3189 51.7062 28.3189 51.0591C28.3189 50.412 27.7941 49.8872 27.147 49.8872H5.41268C4.76545 49.8872 4.24092 50.4118 4.2408 51.0589C4.24069 51.7061 4.76522 52.2307 5.41233 52.2309C6.90846 52.2314 8.12569 53.4483 8.12569 54.9435C8.12569 56.4391 6.90834 57.656 5.41209 57.6562C5.39791 57.6562 5.38397 57.6566 5.36991 57.6571C5.35584 57.6566 5.34178 57.6562 5.32748 57.6562C5.30311 57.6562 5.04108 57.656 5.00639 57.6557C3.90237 57.6291 3.00424 56.7087 3.00424 55.6042V4.39582C3.00424 3.29555 3.89674 2.37715 4.99432 2.34469C5.04319 2.34445 5.23385 2.34422 5.45135 2.3441C6.92955 2.36543 8.12557 3.5741 8.12557 5.05652C8.12557 6.55195 6.90834 7.76883 5.41221 7.76918C4.76498 7.76941 4.24057 8.29406 4.24069 8.94117C4.2408 9.58828 4.76534 10.1129 5.41256 10.1129H41.2337V49.8871H37.8594C37.2122 49.8871 36.6876 50.4118 36.6876 51.0589C36.6876 51.7061 37.2122 52.2308 37.8594 52.2308H42.2821C43.7785 52.2308 44.9957 53.4479 44.9957 54.9439C44.9958 55.1197 44.9792 55.2943 44.9454 55.4654Z" fill="black"/>
<path d="M33.6222 50.6109C33.437 50.1588 32.9701 49.8632 32.4821 49.8893C32.007 49.9147 31.5843 50.2315 31.4309 50.6823C31.2731 51.1456 31.4298 51.6718 31.8123 51.9763C32.1952 52.2809 32.7434 52.3126 33.159 52.0542C33.6392 51.7556 33.8399 51.133 33.6222 50.6109Z" fill="black"/>
<path d="M22.8283 36.9566C29.3217 36.9566 34.6043 31.6739 34.6043 25.1805C34.6043 18.6872 29.3217 13.4045 22.8283 13.4045C16.3349 13.4045 11.0522 18.6872 11.0522 25.1805C11.0522 31.6739 16.3349 36.9566 22.8283 36.9566ZM22.8283 15.7482C28.0293 15.7482 32.2606 19.9795 32.2606 25.1805C32.2606 30.3816 28.0293 34.6128 22.8283 34.6128C17.6273 34.6128 13.396 30.3816 13.396 25.1805C13.396 19.9795 17.6273 15.7482 22.8283 15.7482Z" fill="black"/>
<path d="M18.6859 27.0392L18.5445 29.943C18.5252 30.3383 18.7068 30.7167 19.0273 30.9488C19.3477 31.1812 19.7638 31.2359 20.1334 31.0946L22.828 30.0647L25.5226 31.0947C25.6581 31.1465 25.7999 31.1719 25.9409 31.1719C26.1844 31.1719 26.4258 31.096 26.6286 30.9489C26.9491 30.7167 27.1307 30.3384 27.1114 29.9431L26.97 27.0393L28.7802 24.7745C29.0265 24.4665 29.1012 24.055 28.9791 23.68C28.8568 23.3049 28.5541 23.0165 28.1736 22.9124L25.3903 22.152L23.8103 19.7224C23.5941 19.3899 23.2245 19.1894 22.8279 19.1894C22.4313 19.1894 22.0617 19.39 21.8455 19.7225L20.2656 22.152L17.4822 22.9124C17.1016 23.0165 16.799 23.3049 16.6767 23.68C16.5546 24.055 16.6294 24.4665 16.8756 24.7745L18.6859 27.0392ZM21.3137 24.2951C21.5909 24.2194 21.8306 24.0444 21.9872 23.8035L22.828 22.5107L23.6689 23.8036C23.8256 24.0446 24.0653 24.2194 24.3424 24.2951L25.8367 24.7034L24.8627 25.9219C24.6844 26.1448 24.5938 26.4254 24.6076 26.7105L24.6833 28.2645L23.2465 27.7152C23.1118 27.6638 22.97 27.638 22.8281 27.638C22.6862 27.638 22.5444 27.6638 22.4098 27.7152L20.9729 28.2645L21.0486 26.7105C21.0625 26.4252 20.9719 26.1448 20.7935 25.9219L19.8196 24.7034L21.3137 24.2951Z" fill="black"/>
<path d="M33.7306 41.5766H12.2241C11.577 41.5766 11.0522 42.1012 11.0522 42.7485C11.0522 43.3956 11.577 43.9203 12.2241 43.9203H33.7307C34.3778 43.9203 34.9026 43.3956 34.9026 42.7485C34.9025 42.1014 34.3778 41.5766 33.7306 41.5766Z" fill="black"/>
</svg>
