<svg width="64" height="58" viewBox="0 0 64 58" fill="none" xmlns="http://www.w3.org/2000/svg">
<path fill-rule="evenodd" clip-rule="evenodd" d="M30.8604 43.6165H33.4242C34.2788 43.6165 34.9435 44.2811 34.9435 45.1357V54.4414C34.9435 55.296 34.2788 55.9607 33.4242 55.9607H30.8604C30.0058 55.9607 29.3412 55.296 29.3412 54.4414V45.1357C29.3412 44.2811 30.1008 43.6165 30.8604 43.6165Z" fill="#5B5B5B"/>
<path d="M30.8605 42.477H33.4243C34.1839 42.477 34.8486 42.7619 35.3234 43.2366C35.7982 43.7114 36.083 44.3761 36.083 45.1357V54.4414C36.083 55.201 35.7982 55.8657 35.3234 56.3405C34.8486 56.8153 34.1839 57.1001 33.4243 57.1001H30.8605C30.1008 57.1001 29.4362 56.8153 28.9614 56.3405C28.4866 55.8657 28.2017 55.201 28.2017 54.4414V45.1357C28.2017 44.3761 28.4866 43.7114 28.9614 43.2366C29.5311 42.7619 30.1958 42.477 30.8605 42.477ZM33.4243 44.7559H30.8605C30.7655 44.7559 30.6706 44.7559 30.5756 44.8509C30.4807 44.9458 30.4807 45.0408 30.4807 45.1357V54.4414C30.4807 54.5363 30.4807 54.6313 30.5756 54.7262C30.6706 54.8212 30.7655 54.8212 30.8605 54.8212H33.4243C33.5192 54.8212 33.6142 54.8212 33.7092 54.7262C33.8041 54.6313 33.8041 54.5363 33.8041 54.4414V45.1357C33.8041 45.0408 33.8041 44.9458 33.7092 44.8509C33.6142 44.7559 33.5192 44.7559 33.4243 44.7559Z" fill="black"/>
<path fill-rule="evenodd" clip-rule="evenodd" d="M43.6794 26.0497L42.1601 44.3761C41.9702 46.4651 39.6913 48.2693 36.6527 48.2693H35.6082V44.9459C35.6082 44.2812 34.8486 43.7114 33.804 43.7114H30.7655C29.8159 43.7114 28.9613 44.2812 28.9613 44.9459V48.2693H27.3471C24.3085 48.2693 22.0296 46.5601 21.8397 44.3761L19.8456 25.2901C19.5607 22.6313 19.4658 23.9607 21.9346 24.9102C23.0741 25.2901 24.4984 25.5749 26.0177 25.5749H38.3619C39.9762 25.5749 41.4005 25.385 42.6349 24.9102C44.3441 24.1506 43.8693 23.7708 43.6794 26.0497Z" fill="#E60005"/>
<path d="M44.819 26.1447L43.2997 44.4711C43.2047 45.8954 42.3501 47.1298 41.1157 48.0794C39.8813 48.839 38.362 49.4088 36.5579 49.4088H35.5133C34.8487 49.4088 34.3739 48.934 34.3739 48.2693V44.9459C34.3739 44.9459 34.3739 45.0408 34.3739 44.9459C34.2789 44.8509 33.9941 44.8509 33.8041 44.8509H30.7656C30.4807 44.8509 30.2908 44.9459 30.1009 45.0408V48.3643C30.1009 49.0289 29.6261 49.5037 28.9614 49.5037H27.3472C25.638 49.5037 24.1187 49.0289 22.9792 48.1743C21.7448 47.3197 20.8902 45.9904 20.7003 44.566L18.6113 24.9102C18.4214 23.5809 18.4214 23.0111 19.4659 22.7263H19.5608C20.0356 22.6313 20.3205 22.8212 20.7003 23.1061H20.7952C21.0801 23.296 21.5549 23.5809 22.2196 23.8657C22.6944 24.0556 23.359 24.2456 23.9288 24.3405C24.4985 24.4355 25.1632 24.5304 25.9228 24.5304H38.2671C39.0267 24.5304 39.7863 24.5304 40.451 24.3405C41.0208 24.2456 41.5905 24.0556 42.1602 23.8657C42.4451 23.7708 42.73 23.5809 42.9199 23.4859C43.6795 23.1061 44.0593 22.9162 44.6291 23.5809C45.0089 24.0556 45.0089 24.3405 44.9139 25.0052C44.9139 25.2901 44.819 25.6699 44.819 26.1447ZM41.0208 44.2812L42.54 26.0497C41.9703 26.2396 41.4006 26.3346 40.7359 26.5245C39.9763 26.6194 39.1217 26.7144 38.1721 26.7144H25.8279C25.0682 26.7144 24.2136 26.6194 23.549 26.5245C22.7893 26.4295 22.0297 26.2396 21.4599 25.9548C21.27 25.8598 21.0801 25.8598 20.9852 25.7648L22.9792 44.2812C23.0742 45.0408 23.549 45.7055 24.3086 46.2752C25.0682 46.845 26.2077 47.1298 27.4421 47.1298H27.9169V44.9459C27.9169 44.1862 28.2967 43.6165 28.9614 43.1417C29.4362 42.7619 30.1958 42.572 30.8605 42.572H33.8991C34.5638 42.572 35.2285 42.7619 35.7033 43.1417L35.7982 43.2367C36.4629 43.7114 36.8427 44.2812 36.8427 45.0408V47.2248C38.0771 47.2248 39.1217 46.845 39.8813 46.3702C40.451 45.7055 40.9258 45.0408 41.0208 44.2812Z" fill="black"/>
<path d="M27.0622 36.7797H29.4361L28.0118 42.9518L28.2966 42.7619C28.7714 42.477 29.3412 42.1921 30.0058 41.9073C30.6705 41.7173 31.4302 41.5274 32.1898 41.5274C32.9495 41.5274 33.6141 41.6224 34.2788 41.9073C34.9435 42.0972 35.5133 42.382 36.083 42.6669L36.7477 43.0467L34.3738 36.7797H37.0325C37.6972 36.7797 38.267 36.9696 38.6468 37.3494C39.1216 37.7292 39.4064 38.299 39.4064 38.9636V40.8627C39.4064 41.2426 39.3115 41.7173 39.2165 42.0972C39.1216 42.477 38.8367 42.8568 38.6468 43.1417L38.172 43.8064L39.0266 44.2811L37.6023 44.566L37.4124 44.8509L37.3174 44.661L35.7981 44.9458C35.6082 44.9458 35.5133 45.0408 35.3233 45.0408C35.1334 45.0408 34.9435 45.0408 34.8486 45.0408H29.4361C29.2462 45.0408 29.0563 45.0408 28.7714 45.0408L27.537 44.7559L27.442 44.9458L27.0622 44.661L25.448 44.4711L26.2076 43.9963L26.0177 43.8064C25.5429 43.4265 25.1631 42.9518 24.9732 42.477C24.6883 42.0022 24.5934 41.4325 24.5934 40.8627V39.0586C24.5934 38.3939 24.8782 37.8242 25.353 37.4444C25.8278 37.0645 26.3975 36.7797 27.0622 36.7797Z" fill="black"/>
<path d="M32.9495 28.8034C32.7596 29.3731 32.0949 29.658 31.5252 29.4681C30.9554 29.2782 30.6706 28.6135 30.8605 28.0438L35.2284 15.6995C35.4183 15.1298 36.083 14.8449 36.6528 15.0348C37.2225 15.2248 37.5074 15.8894 37.3174 16.4592L32.9495 28.8034Z" fill="black"/>
<path d="M35.2286 12.2812C35.2286 11.6165 35.7034 11.1417 36.2731 11.1417C36.9378 11.1417 37.4126 11.6165 37.4126 12.1862L37.6974 20.1625C37.6974 20.8272 37.2226 21.3019 36.6529 21.3019C35.9882 21.3019 35.5134 20.8272 35.5134 20.2574L35.2286 12.2812Z" fill="black"/>
<path d="M40.8309 23.1061C40.6409 20.4473 39.5015 13.7055 38.8368 9.71733C38.5519 8.57787 38.457 7.62831 38.362 7.05858C38.362 6.86867 38.0771 6.5838 37.6024 6.29894C37.0326 6.01407 36.178 5.82416 35.1335 5.82416H28.3917C27.4421 5.82416 26.5875 6.01407 25.9228 6.29894C25.4481 6.48885 25.1632 6.77371 25.1632 7.05858L22.7893 23.1061C24.0237 23.5808 27.632 23.6758 31.2404 23.6758C35.0386 23.5808 39.0267 23.296 40.8309 23.1061ZM41.0208 9.33751C41.6855 13.5156 42.9199 20.7322 43.1098 23.296L43.2047 23.7707C43.2997 24.9102 43.1098 25.1951 41.6855 25.29C40.3561 25.385 35.7982 25.7648 31.3353 25.8598C26.5875 25.9547 21.9347 25.6699 20.7952 24.3405L20.4154 23.9607L22.8843 6.67876C23.0742 5.7292 23.7389 4.8746 24.8783 4.30487C25.8279 3.83009 26.9674 3.54523 28.3917 3.54523H35.1335C36.4629 3.54523 37.6973 3.83009 38.5519 4.30487C39.6914 4.8746 40.451 5.7292 40.546 6.67876L41.0208 9.33751Z" fill="black"/>
<path d="M40.5459 4.11498C40.6409 4.68471 40.1661 5.3494 39.5964 5.3494C39.0266 5.44435 38.3619 4.96958 38.3619 4.39984C38.3619 4.20993 38.0771 3.92507 37.6023 3.6402C37.0326 3.35533 36.178 3.16542 35.1335 3.16542H28.4866C27.4421 3.16542 26.6824 3.35533 26.0177 3.6402C25.5429 3.83011 25.2581 4.11498 25.2581 4.39984C25.1631 4.96958 24.5934 5.44435 24.0237 5.3494C23.4539 5.25444 22.9791 4.68471 23.0741 4.11498C23.264 3.16542 23.9287 2.31082 25.0682 1.74109C26.0177 1.26631 27.1572 0.981445 28.5815 0.981445H35.2284C36.5578 0.981445 37.7922 1.26631 38.7418 1.74109C39.6913 2.31082 40.451 3.16542 40.5459 4.11498Z" fill="black"/>
<path d="M16.3324 15.8894L20.2256 16.839C20.7953 16.934 21.0802 17.4087 21.365 17.8835C21.46 18.1684 21.5549 18.5482 21.6499 18.8331L22.5045 23.6758C22.6944 24.9102 22.0297 25.5749 20.9852 25.7648C19.6558 25.9547 17.3769 25.29 16.3324 25.0052L15.9526 24.9102C15.4778 24.8153 15.003 24.4354 14.8131 23.9607C14.6232 23.5808 14.5282 23.201 14.5282 22.7262V17.8835C14.5282 17.6936 14.5282 17.4087 14.6232 17.2188C14.7181 16.934 14.8131 16.6491 15.003 16.3642C15.2879 15.9844 15.6677 15.7945 16.1425 15.7945C16.0475 15.8895 16.1425 15.8894 16.3324 15.8894ZM19.276 19.023L16.6173 18.3583V22.7262V22.8212L16.9021 22.9162C17.6618 23.1061 19.276 23.5808 20.1306 23.6758L19.371 19.4028L19.276 19.023Z" fill="black"/>
<path d="M47.4777 18.2633L44.724 19.023L44.629 19.3078L43.8694 23.4859L47.4777 22.8212V22.7262V18.2633ZM43.8694 16.934L47.7626 15.9844C47.8575 15.9844 47.9525 15.9844 48.1424 15.9844C48.6172 15.9844 48.997 16.1743 49.2819 16.5541C49.4718 16.744 49.6617 17.0289 49.6617 17.4087C49.7566 17.5986 49.7566 17.7886 49.7566 18.0734V22.9162C49.7566 23.3909 49.6617 23.7708 49.4718 24.1506C49.1869 24.6254 48.8071 25.0052 48.3323 25.1001L43.5845 26.0497C43.3946 26.0497 43.2047 26.0497 43.0148 26.0497C42.635 25.9547 42.3501 25.7648 42.0652 25.48C41.8753 25.29 41.6854 24.9102 41.6854 24.6254C41.5905 24.3405 41.5905 24.1506 41.6854 23.8657L42.54 19.023C42.635 18.7381 42.635 18.3583 42.8249 18.0734C42.9198 17.4087 43.2997 17.0289 43.8694 16.934Z" fill="black"/>
<path d="M36.9378 37.5393L39.2167 43.6165C39.7864 45.1357 39.5965 45.8954 38.7419 46.2752C37.9823 46.5601 37.3176 46.0853 36.368 45.5156C35.2286 44.8509 33.6143 43.8064 32.095 43.8064C30.2909 43.8064 28.8665 44.9458 28.0119 45.7055C27.3473 46.2752 26.8725 46.655 26.2078 46.4651C25.2582 46.2752 25.0683 45.5156 25.4481 43.9013L27.1573 36.7797H36.8428L36.9378 37.5393ZM36.6529 43.0467L35.1336 39.0586H28.8665L27.917 42.9518C28.9615 42.2871 30.3858 41.5274 32.095 41.5274C33.8042 41.6224 35.4185 42.382 36.6529 43.0467ZM37.9823 44.1862C38.1722 44.0912 38.0772 44.0912 37.9823 44.1862V44.1862ZM26.6826 44.3761C26.7775 44.3761 26.7775 44.3761 26.7775 44.3761C26.5876 44.2811 26.3977 44.2811 26.6826 44.3761Z" fill="black"/>
<path fill-rule="evenodd" clip-rule="evenodd" d="M21.4599 28.2337L27.632 29.2782C28.1068 29.3731 28.4866 29.8479 28.4866 30.3227V34.7856C28.4866 35.2604 28.1068 35.6402 27.632 35.5452L21.4599 34.5007C20.9851 34.4058 20.6053 33.931 20.6053 33.4562V28.9933C20.6053 28.5185 20.9851 28.1387 21.4599 28.2337Z" fill="#FEFEFE"/>
<path d="M21.6498 27.0942L27.822 28.1387C28.2967 28.2337 28.7715 28.5185 29.1513 28.8984C29.4362 29.2782 29.7211 29.753 29.7211 30.3227V34.7856C29.7211 34.8806 29.7211 34.9755 29.7211 35.1654C29.6261 35.6402 29.4362 36.02 29.0564 36.3049C28.7715 36.5898 28.2967 36.7797 27.822 36.7797C27.727 36.7797 27.632 36.7797 27.5371 36.7797L21.365 35.7352C20.8902 35.6402 20.4154 35.3553 20.0356 34.9755C19.7507 34.5957 19.4659 34.1209 19.4659 33.5512V29.0883C19.4659 28.9933 19.4659 28.8984 19.4659 28.7085C19.5608 28.2337 19.7507 27.8539 20.1306 27.569C20.4154 27.2841 20.8902 27.0942 21.365 27.0942C21.4599 27.0942 21.5549 27.0942 21.6498 27.0942ZM27.4421 30.3227L21.7448 29.3731V33.3613L27.4421 34.3108V30.3227Z" fill="black"/>
<path fill-rule="evenodd" clip-rule="evenodd" d="M42.0652 28.2337L35.8931 29.2782C35.4183 29.3731 35.0385 29.8479 35.0385 30.3227V34.7856C35.0385 35.2604 35.4183 35.6402 35.8931 35.5452L42.0652 34.5007C42.54 34.4058 42.9198 33.931 42.9198 33.4562V28.9933C42.9198 28.5185 42.54 28.1387 42.0652 28.2337Z" fill="#FEFEFE"/>
<path d="M41.7805 29.3731L36.0832 30.3227V34.3108L41.7805 33.3613V29.3731ZM35.7034 28.1387L41.8755 27.0942C41.9704 27.0942 42.0654 27.0942 42.1603 27.0942C42.6351 27.0942 43.0149 27.2841 43.3948 27.569C43.6796 27.8539 43.9645 28.2337 44.0594 28.7085C44.0594 28.8034 44.0594 28.8984 44.0594 29.0883V33.5512C44.0594 34.1209 43.8695 34.5957 43.4897 34.9755C43.2048 35.3553 42.7301 35.6402 42.1603 35.7352L35.9882 36.7797C35.8933 36.7797 35.7983 36.7797 35.7034 36.7797C35.2286 36.7797 34.8488 36.5898 34.4689 36.3049C34.1841 36.02 33.8992 35.6402 33.8042 35.1654C33.8042 35.0705 33.8042 34.8806 33.8042 34.7856V30.3227C33.8042 29.753 33.9942 29.2782 34.374 28.8984C34.6588 28.5185 35.1336 28.2337 35.7034 28.1387Z" fill="black"/>
<path d="M51.7508 45.7055C51.0861 45.7055 50.6113 45.2307 50.6113 44.566C50.6113 43.9013 51.0861 43.4265 51.7508 43.4265H53.0802C54.1247 43.4265 54.9793 43.1417 55.549 42.7619C56.1187 42.382 56.4986 41.8123 56.4986 41.2426L58.1128 26.2396H58.0178C57.5431 26.4295 56.3087 26.6194 54.9793 26.7144C53.365 26.9043 51.5609 26.9992 50.8012 26.9992C50.1365 26.9992 49.6618 26.5245 49.6618 25.8598C49.6618 25.1951 50.1365 24.7203 50.8012 24.7203C51.4659 24.7203 53.1751 24.6254 54.7894 24.4355C55.9288 24.3405 56.9733 24.1506 57.2582 24.0556C57.8279 23.8657 58.2078 23.5809 58.4926 23.3909C58.8724 23.1061 59.1573 22.9162 59.6321 23.0111C60.7716 23.201 60.6766 23.7708 60.4867 25.0052L58.7775 41.3375C58.6825 42.5719 57.9229 43.7114 56.8784 44.4711C55.9288 45.1357 54.5995 45.6105 53.0802 45.6105L51.7508 45.7055Z" fill="black"/>
<path d="M44.6291 9.90728C43.9644 9.90728 43.4897 9.4325 43.4897 8.86277C43.4897 8.19808 43.9644 7.7233 44.5342 7.7233L52.1306 7.34348C53.2701 7.24852 54.3146 7.53339 55.0742 7.91321C56.1187 8.38799 56.7834 9.24259 56.8784 10.0972L58.9674 23.9607C59.0624 24.5304 58.5876 25.1951 58.0178 25.1951C57.4481 25.2901 56.7834 24.8153 56.7834 24.2456L54.6944 10.3821C54.6944 10.1921 54.4095 10.0022 54.1247 9.90728C53.6499 9.62241 52.9852 9.52745 52.2256 9.52745L44.6291 9.90728Z" fill="black"/>
<path d="M61.8159 19.9725L59.9168 20.4473L59.3471 23.9607C60.1067 23.8657 61.1513 23.5808 61.8159 23.3909H61.9109L61.8159 19.9725ZM58.9673 18.3583L62.1958 17.5037C62.2907 17.5037 62.3857 17.5037 62.4806 17.5037C62.8605 17.5037 63.2403 17.6936 63.5251 17.9785C63.7151 18.1684 63.81 18.4532 63.905 18.7381C63.905 18.928 63.9999 19.1179 63.9999 19.3078V23.296C63.9999 23.6758 63.905 24.0556 63.7151 24.4354C63.5251 24.9102 63.0504 25.29 62.5756 25.385L62.2907 25.48C61.3412 25.7648 59.4421 26.3346 58.3026 26.1446C57.2581 25.9547 56.6884 25.385 56.8783 24.2455L57.5429 20.2574C57.6379 19.9725 57.6379 19.6877 57.8278 19.4028C58.1127 18.8331 58.3975 18.4532 58.9673 18.3583Z" fill="black"/>
<path d="M48.0474 40.5779C47.4776 40.6728 46.8129 40.293 46.718 39.7233C46.623 39.1536 47.0029 38.4889 47.5726 38.3939C48.0474 38.299 48.5221 38.299 48.9969 38.299H49.0919C50.2313 38.299 51.2759 38.5838 52.1305 38.9636L51.7506 37.8242L47.8575 37.7292C47.1928 37.7292 46.718 37.2544 46.718 36.5898C46.718 35.9251 47.1928 35.4503 47.8575 35.4503L53.3649 35.5452L54.7892 39.9132C55.169 41.1476 54.9791 41.8123 54.1245 42.0972C53.5548 42.2871 53.08 42.0972 52.5103 41.7174C51.8456 41.3375 50.6112 40.5779 49.0919 40.5779H48.9969C48.7121 40.5779 48.3322 40.5779 48.0474 40.5779Z" fill="black"/>
<path d="M55.0742 29.9429L52.5104 30.4176V32.0319L55.0742 31.5571V29.9429ZM51.7507 28.2337L55.454 27.569C55.549 27.569 55.6439 27.569 55.7389 27.569C56.1187 27.569 56.4985 27.6639 56.7834 27.9488C57.0682 28.1387 57.2582 28.5185 57.3531 28.8983C57.3531 28.9933 57.3531 29.0883 57.3531 29.1832V31.9369C57.3531 32.4117 57.1632 32.7915 56.9733 33.0764C56.6884 33.3613 56.3086 33.6461 55.9288 33.7411L52.2255 34.4058C52.1306 34.4058 52.0356 34.4058 51.9407 34.4058C51.5608 34.4058 51.181 34.3108 50.8961 34.0259C50.6113 33.836 50.4214 33.4562 50.3264 33.0764C50.3264 32.9814 50.3264 32.8865 50.3264 32.7915V30.0378C50.3264 29.658 50.5163 29.1832 50.7062 28.8983C50.8961 28.5185 51.276 28.3286 51.7507 28.2337Z" fill="black"/>
<path fill-rule="evenodd" clip-rule="evenodd" d="M47.8576 42.382H50.1365C50.8961 42.382 51.4659 42.9518 51.4659 43.7114V50.8331C51.4659 51.5927 50.8961 52.1625 50.1365 52.1625H47.8576C47.0979 52.1625 46.5282 51.5927 46.5282 50.8331V43.7114C46.5282 42.9518 47.0979 42.382 47.8576 42.382Z" fill="#5B5B5B"/>
<path d="M47.8576 41.2426H50.1365C50.8012 41.2426 51.4659 41.5274 51.8457 42.0022C52.3205 42.477 52.6054 43.0467 52.6054 43.7114V50.8331C52.6054 51.4977 52.3205 52.1624 51.8457 52.5423C51.371 53.017 50.8012 53.3019 50.1365 53.3019H47.8576C47.1929 53.3019 46.5282 53.017 46.1484 52.5423C45.6736 52.0675 45.3888 51.4977 45.3888 50.8331V43.7114C45.3888 43.0467 45.6736 42.382 46.1484 42.0022C46.5282 41.5274 47.1929 41.2426 47.8576 41.2426ZM50.1365 43.5215H47.8576C47.7627 43.5215 47.7627 43.5215 47.6677 43.6164C47.5727 43.7114 47.5727 43.7114 47.5727 43.8063V50.928C47.5727 51.023 47.5727 51.023 47.6677 51.1179C47.7627 51.2129 47.7627 51.2129 47.8576 51.2129H50.1365C50.2315 51.2129 50.2315 51.2129 50.3265 51.1179C50.3265 51.1179 50.4214 51.023 50.4214 50.928V43.7114C50.4214 43.6164 50.4214 43.6164 50.3265 43.5215C50.2315 43.5215 50.2315 43.5215 50.1365 43.5215Z" fill="black"/>
<path d="M12.3443 43.4265C13.009 43.4265 13.4838 43.9013 13.4838 44.566C13.4838 45.2307 13.009 45.7055 12.3443 45.7055H11.0149C9.49563 45.7055 8.26121 45.3256 7.2167 44.566C6.07724 43.8064 5.41255 42.6669 5.31759 41.4325L3.51344 25.1001C3.32353 23.8657 3.32353 23.296 4.36804 23.1061C4.84281 23.0111 5.12768 23.201 5.5075 23.4859C5.69741 23.6758 6.17219 23.8657 6.74192 24.1506C7.02679 24.2455 8.0713 24.4354 9.21077 24.5304C10.7301 24.7203 12.5342 24.8153 13.1989 24.8153C13.8636 24.8153 14.3384 25.29 14.3384 25.9547C14.3384 26.6194 13.8636 27.0942 13.1989 27.0942C12.4393 27.0942 10.6351 26.9992 9.02086 26.8093C7.69148 26.7144 6.45706 26.5245 5.98228 26.3345H5.88732L7.50157 41.3375C7.59652 41.8123 7.97635 42.382 8.54608 42.7618C9.21077 43.2366 10.0654 43.4265 11.0149 43.4265H12.3443Z" fill="black"/>
<path d="M19.4659 7.7233C20.1306 7.7233 20.6054 8.29303 20.5104 8.86277C20.5104 9.52745 19.9407 10.0022 19.3709 9.90728L11.7745 9.52745C11.0148 9.52745 10.3502 9.62241 9.97034 9.81232C9.59052 10.0022 9.4006 10.1921 9.4006 10.2871L7.31158 24.2456C7.21663 24.8153 6.6469 25.2901 6.07716 25.1951C5.50743 25.1002 5.03265 24.5304 5.12761 23.9607L7.12167 10.0972C7.21663 9.24259 7.88132 8.38799 8.92583 7.91321C9.68547 7.53339 10.73 7.24852 11.8694 7.34348L19.4659 7.7233Z" fill="black"/>
<path d="M1.89911 17.5987L5.1276 18.4533C5.60237 18.5482 5.9822 18.928 6.17211 19.4028C6.26706 19.6877 6.36202 19.9725 6.45697 20.2574L7.12166 24.2455C7.31157 25.48 6.74184 26.0497 5.69733 26.1446C4.55786 26.3346 2.65875 25.7648 1.7092 25.48L1.42433 25.385C0.949555 25.29 0.569733 24.9102 0.284866 24.4354C0.0949555 24.1506 0 23.7708 0 23.3909V19.4028C0 19.2129 0 19.023 0.0949555 18.8331C0.189911 18.5482 0.284866 18.2633 0.474777 18.0734C0.759644 17.7886 1.13947 17.5987 1.51929 17.5987C1.61424 17.5037 1.7092 17.5037 1.89911 17.5987ZM4.17804 20.4473L2.27893 19.9725V23.296H2.37389C2.94362 23.4859 4.08309 23.7708 4.84273 23.8657L4.17804 20.4473Z" fill="black"/>
<path d="M16.4273 38.3939C16.997 38.4888 17.4718 39.1535 17.2819 39.7233C17.092 40.293 16.5223 40.7678 15.9525 40.5779C15.6677 40.4829 15.3828 40.4829 15.003 40.4829H14.8131C13.2938 40.4829 12.1543 41.1476 11.3947 41.6224C10.73 42.0022 10.3502 42.1921 9.78042 42.0022C8.92582 41.7173 8.73591 41.0526 9.11573 39.8182L10.5401 35.4503L16.0475 35.3553C16.7122 35.3553 17.1869 35.8301 17.1869 36.4948C17.1869 37.1595 16.7122 37.6342 16.0475 37.6342L12.1543 37.7292L11.8694 38.9636C12.724 38.5838 13.6736 38.2989 14.908 38.2989H15.0979C15.4777 38.2989 15.9525 38.2989 16.4273 38.3939Z" fill="black"/>
<path d="M8.64095 27.569L12.3442 28.2337C12.724 28.3286 13.1039 28.5185 13.3887 28.8983C13.6736 29.1832 13.7685 29.658 13.7685 30.0378V32.7915C13.7685 32.8865 13.7685 32.9814 13.7685 33.0764C13.6736 33.4562 13.4837 33.7411 13.1988 34.0259C12.9139 34.3108 12.5341 34.4058 12.1543 34.4058C12.0593 34.4058 11.9644 34.4058 11.8694 34.4058L8.16617 33.7411C7.78635 33.6461 7.40653 33.4562 7.12166 33.0764C6.8368 32.7915 6.64688 32.3167 6.64688 31.9369V29.1832C6.64688 29.0883 6.64688 28.9933 6.64688 28.8983C6.74184 28.5185 6.93175 28.2337 7.21662 27.9488C7.59644 27.6639 7.88131 27.569 8.35608 27.569C8.45104 27.569 8.54599 27.569 8.64095 27.569ZM11.5846 30.4176L9.02077 29.9429V31.5571L11.5846 32.0319V30.4176Z" fill="black"/>
<path fill-rule="evenodd" clip-rule="evenodd" d="M16.1424 42.382H13.8635C13.1038 42.382 12.5341 42.9518 12.5341 43.7114V50.8331C12.5341 51.5927 13.1038 52.1625 13.8635 52.1625H16.1424C16.902 52.1625 17.4718 51.5927 17.4718 50.8331V43.7114C17.5667 42.9518 16.902 42.382 16.1424 42.382Z" fill="#5B5B5B"/>
<path d="M16.1424 43.5215H13.8635C13.7685 43.5215 13.7685 43.5215 13.6736 43.6164C13.6736 43.6164 13.5786 43.7114 13.5786 43.8063V50.928C13.5786 51.023 13.5786 51.023 13.6736 51.1179C13.6736 51.1179 13.7685 51.2129 13.8635 51.2129H16.1424C16.2374 51.2129 16.2374 51.2129 16.3323 51.1179C16.3323 51.1179 16.4273 51.023 16.4273 50.928V43.7114C16.4273 43.6164 16.4273 43.6164 16.3323 43.5215C16.3323 43.5215 16.2374 43.5215 16.1424 43.5215ZM13.9585 41.2426H16.1424C16.8071 41.2426 17.4718 41.5274 17.8516 42.0022C18.3264 42.477 18.6113 43.0467 18.6113 43.7114V50.8331C18.6113 51.4977 18.3264 52.1624 17.8516 52.5423C17.3769 53.017 16.8071 53.3019 16.1424 53.3019H13.8635C13.1988 53.3019 12.5341 53.017 12.1543 52.5423C11.6795 52.0675 11.3947 51.4977 11.3947 50.8331V43.7114C11.3947 43.0467 11.6795 42.382 12.1543 42.0022C12.6291 41.5274 13.1988 41.2426 13.9585 41.2426Z" fill="black"/>
</svg>
