<svg width="66" height="57" viewBox="0 0 66 57" fill="none" xmlns="http://www.w3.org/2000/svg">
<path fill-rule="evenodd" clip-rule="evenodd" d="M16.8666 43.254H19.4333C20.35 43.254 20.9 43.9871 20.9 44.7203V54.0675C20.9 54.9839 20.1666 55.5338 19.4333 55.5338H16.8666C15.95 55.5338 15.4 54.8007 15.4 54.0675V44.7203C15.2166 43.9871 15.95 43.254 16.8666 43.254Z" fill="#5B5B5B"/>
<path d="M16.8667 42.1544H19.4334C20.1667 42.1544 20.9 42.5209 21.2667 42.8875C21.8167 43.4373 22 43.9872 22 44.7203V54.0675C22 54.8007 21.6334 55.5338 21.2667 55.9003C20.7167 56.4502 20.1667 56.6335 19.4334 56.6335H16.8667C16.1334 56.6335 15.4 56.2669 15.0334 55.9003C14.4834 55.3505 14.3 54.8007 14.3 54.0675V44.7203C14.3 43.9872 14.6667 43.254 15.0334 42.8875C15.4 42.3376 16.1334 42.1544 16.8667 42.1544ZM19.4334 44.3537H16.8667C16.6834 44.3537 16.6834 44.3537 16.6834 44.537L16.5 44.7203V54.0675C16.5 54.2508 16.5 54.2508 16.6834 54.2508L16.8667 54.4341H19.4334C19.6167 54.4341 19.6167 54.4341 19.6167 54.2508L19.8 54.0675V44.7203C19.8 44.537 19.8 44.537 19.6167 44.537C19.4334 44.537 19.4334 44.3537 19.4334 44.3537Z" fill="black"/>
<path fill-rule="evenodd" clip-rule="evenodd" d="M29.8832 25.4759L28.2332 43.9871C28.0499 46.1865 25.6666 47.836 22.5499 47.836H21.4499V44.3537C21.4499 43.6206 20.7166 43.0707 19.6166 43.0707H16.6832C15.7666 43.0707 14.8499 43.6206 14.8499 44.3537V47.836H13.1999C10.0832 47.836 7.88324 46.0032 7.51658 43.9871L5.49991 24.7427C5.13324 21.9935 5.13324 23.4598 7.51658 24.3762C8.61658 24.7427 10.0832 25.1093 11.5499 25.1093H24.0166C25.6666 25.1093 27.1332 24.926 28.4166 24.3762C30.4332 23.4598 30.0666 23.0932 29.8832 25.4759Z" fill="#E60005"/>
<path d="M30.9833 25.4759L29.3333 44.1704C29.1499 45.6367 28.4166 46.9196 27.1333 47.836C26.0333 48.7524 24.3833 49.119 22.5499 49.119H21.4499C20.8999 49.119 20.3499 48.5692 20.3499 48.0193V44.537C20.1666 44.537 19.9833 44.3537 19.7999 44.3537H16.6833C16.4999 44.3537 16.1333 44.3537 16.1333 44.537V47.836C16.1333 48.3859 15.5833 48.9357 15.0333 48.9357H13.1999C11.3666 48.9357 9.89993 48.3859 8.79993 47.6528C7.5166 46.7364 6.59993 45.4534 6.59993 43.9872L4.39993 24.1929C4.2166 22.7267 4.2166 22.1769 5.3166 21.9936C5.8666 21.9936 6.04993 22.1769 6.59993 22.3602C6.9666 22.5434 7.33327 22.91 8.0666 23.0933C8.6166 23.2766 9.1666 23.4598 9.89993 23.4598C10.6333 23.4598 10.9999 23.8264 11.7333 23.8264H24.1999C24.9333 23.8264 25.6666 23.8264 26.3999 23.6431C26.9499 23.6431 27.6833 23.4598 28.0499 23.2765C28.4166 23.0933 28.5999 23.0933 28.7833 22.91C29.5166 22.5434 29.8833 22.3602 30.6166 22.91C31.1666 23.4598 31.1666 23.8264 31.1666 24.3762C30.9833 24.7428 30.9833 25.1093 30.9833 25.4759ZM27.1333 43.9872L28.7833 25.4759C28.2333 25.6592 27.6833 25.8425 26.9499 25.8425C26.2166 26.0257 25.2999 26.0257 24.3833 26.0257H11.7333C10.9999 26.0257 10.0833 26.0257 9.34993 25.8425C8.6166 25.8425 7.88327 25.6592 7.33327 25.2926C7.14993 25.2926 6.9666 25.1093 6.78327 25.1093L8.79993 43.9872C8.79993 44.7203 9.34993 45.4534 10.0833 46.0032C10.8166 46.5531 11.9166 46.9196 13.1999 46.9196H13.5666V44.7203C13.5666 43.9872 13.9333 43.254 14.6666 42.8875C15.2166 42.3376 15.9499 42.1544 16.6833 42.1544H19.7999C20.5333 42.1544 21.0833 42.3376 21.6333 42.7042C22.1833 43.0708 22.7333 43.8039 22.7333 44.537V46.7364C24.0166 46.7364 25.1166 46.3698 25.8499 45.82C26.5833 45.4534 26.9499 44.7203 27.1333 43.9872Z" fill="black"/>
<path d="M12.8333 36.2894H15.2166L13.75 42.5209L13.9333 42.3377C14.4833 41.9711 15.0333 41.7878 15.7666 41.4213C16.5 41.238 17.2333 41.0547 17.9666 41.0547C18.7 41.0547 19.4333 41.238 20.1666 41.4213C20.9 41.6045 21.45 41.9711 22 42.1544L22.7333 42.5209L20.1666 36.2894H22.9166C23.4666 36.2894 24.2 36.4727 24.5666 36.8393C25.1166 37.2058 25.3 37.7557 25.3 38.4888V40.3216C25.3 40.6881 25.3 41.238 25.1166 41.6045C24.9333 41.9711 24.75 42.3377 24.5666 42.7042L24.0166 43.2541L24.9333 43.8039L23.4666 43.9872L23.2833 44.1705V43.9872L21.6333 44.1705C21.45 44.1705 21.2666 44.1705 21.0833 44.1705C20.9 44.1705 20.7166 44.1705 20.5333 44.1705H15.0333C14.85 44.1705 14.6666 44.1705 14.4833 44.1705L13.3833 43.9872V44.1705L13.0166 43.8039L11.3666 43.6206L12.1 43.0708L11.9166 42.8875C11.3666 43.0708 11 42.7042 10.8166 42.1544C10.6333 41.6045 10.45 41.0547 10.45 40.5049V38.6721C10.45 37.9389 10.8166 37.3891 11.1833 37.0226C11.7333 36.656 12.2833 36.2894 12.8333 36.2894Z" fill="black"/>
<path d="M18.8833 28.225C18.7 28.7749 17.9667 29.1414 17.4167 28.9582C16.8667 28.7749 16.5 28.0418 16.6833 27.4919L21.0833 14.8456C21.2667 14.2958 22 13.9292 22.55 14.1125C23.1 14.2958 23.4667 15.0289 23.2833 15.5787L18.8833 28.225Z" fill="black"/>
<path d="M21.2667 11.5466C21.2667 10.9967 21.8167 10.4469 22.3667 10.4469C22.9167 10.4469 23.4667 10.9967 23.4667 11.5466L23.8334 19.6109C23.8334 20.1607 23.2834 20.7106 22.7334 20.7106C22.1834 20.7106 21.6334 20.1607 21.6334 19.6109C21.4501 19.6109 21.2667 11.5466 21.2667 11.5466Z" fill="black"/>
<path d="M26.95 22.5434C26.7667 19.7942 25.4834 13.0129 24.9334 8.98071C24.75 7.88103 24.5667 6.96463 24.5667 6.23151C24.5667 6.04823 24.2 5.68167 23.8334 5.49839C23.2834 5.13183 22.3667 4.94855 21.2667 4.94855H14.3C13.2 4.94855 12.4667 5.13183 11.7334 5.49839C11.3667 5.68167 11 5.86495 11 6.04823L8.61671 22.3601C9.90004 22.91 13.5667 22.91 17.2334 22.91C21.0834 22.91 25.1167 22.5434 26.95 22.5434ZM27.1334 8.61415C27.8667 12.8296 29.15 20.1608 29.3334 22.7267V23.2765C29.3334 24.3762 29.15 24.7428 27.8667 24.7428C26.5834 24.926 22 25.2926 17.2334 25.2926C12.4667 25.2926 7.70004 25.1093 6.41671 23.8264L6.05004 23.4598L8.61671 5.86495C8.80004 4.94855 9.53338 4.03216 10.6334 3.48232C11.7334 2.93248 12.8334 2.56592 14.3 2.56592H21.0834C22.3667 2.56592 23.65 2.93248 24.5667 3.29904C25.6667 3.84888 26.4 4.76527 26.5834 5.68167L27.1334 8.61415Z" fill="black"/>
<path d="M26.5832 3.11576C26.5832 3.66559 26.2166 4.39871 25.6666 4.39871C25.1166 4.39871 24.3832 4.03215 24.3832 3.48231C24.3832 3.29904 24.0166 2.93248 23.6499 2.7492C23.0999 2.38264 22.1832 2.19936 21.0832 2.19936H14.2999C13.1999 2.19936 12.4666 2.38264 11.7332 2.7492C11.1832 3.11576 10.9999 3.29904 10.9999 3.48231C10.9999 4.03215 10.2666 4.58199 9.71657 4.39871C9.16657 4.39871 8.61657 3.66559 8.79991 3.11576C8.98324 2.19936 9.71657 1.28296 10.8166 0.733119C11.5499 0.18328 12.8332 0 14.2999 0H21.0832C22.3666 0 23.6499 0.366559 24.5666 0.733119C25.6666 1.28296 26.3999 2.19936 26.5832 3.11576Z" fill="black"/>
<path d="M2.01667 15.2122L5.86667 16.1285C6.41667 16.3118 6.78333 16.6784 6.96667 17.2282C7.15 17.5948 7.33333 17.9613 7.33333 18.1446L8.25 23.0932C8.43333 24.3761 7.88333 24.926 6.6 25.1093C5.31667 25.2925 2.93333 24.7427 1.83333 24.3761L1.46667 24.1929C0.916667 24.0096 0.55 23.643 0.183333 23.2765C0 22.9099 0 22.5433 0 21.9935V17.0449C0 16.8617 0 16.6784 0 16.4951C0 16.1285 0.183333 15.9453 0.366667 15.5787C0.733333 15.2121 1.1 15.0289 1.46667 15.0289C1.65 15.0289 1.83333 15.0289 2.01667 15.2122ZM5.13333 18.3279L2.38333 17.5948V21.9935V22.1768H2.56667C3.3 22.3601 4.95 22.9099 5.86667 22.9099L5.13333 18.5112V18.3279Z" fill="black"/>
<path d="M33.55 17.5949L30.8 18.328V18.6946L30.0667 22.91L33.55 22.1769V21.9936V17.5949ZM29.8833 16.1287L33.9167 15.2123C34.1 15.2123 34.1 15.2123 34.2833 15.2123C34.65 15.2123 35.2 15.3956 35.3833 15.7621C35.5667 15.9454 35.75 16.312 35.75 16.6785C35.75 16.8618 35.75 17.0451 35.75 17.4116V21.9936C35.75 22.3602 35.5667 22.91 35.3833 23.2766C35.2 23.8264 34.65 24.193 34.1 24.193L29.3333 25.1094C29.15 25.1094 28.9667 25.1094 28.7833 25.1094C28.4167 25.1094 28.05 24.9261 27.8667 24.5595C27.6833 24.3763 27.5 24.0097 27.5 23.6431C27.5 23.4599 27.5 23.0933 27.5 22.91L28.4167 17.9615C28.4167 17.5949 28.6 17.2284 28.7833 17.0451C28.9667 16.6785 29.3333 16.312 29.8833 16.1287Z" fill="black"/>
<path d="M22.9167 37.0226L25.3001 43.2541C25.8501 44.9036 25.6667 45.6367 24.7501 46.0033C24.0167 46.1865 23.2834 45.82 22.3667 45.2701C21.2667 44.537 19.6167 43.6206 17.9667 43.6206C16.1334 43.6206 14.6667 44.9036 13.9334 45.4534C13.2001 46.0033 12.8334 46.3698 12.1001 46.1865C11.1834 46.0033 11.0001 45.2701 11.3667 43.6206L12.8334 36.2894H22.5501L22.9167 37.0226ZM22.7334 42.7042L21.2667 38.6721H14.6667L13.7501 42.7042C14.8501 41.9711 16.3167 41.238 17.9667 41.238C19.8001 41.238 21.4501 41.9711 22.7334 42.7042ZM24.0167 43.8039C24.2001 43.8039 24.0167 43.8039 24.0167 43.8039V43.8039ZM12.4667 43.9872C12.6501 43.9872 12.6501 43.9872 12.4667 43.9872C12.4667 43.9872 12.2834 43.9872 12.4667 43.9872Z" fill="black"/>
<path fill-rule="evenodd" clip-rule="evenodd" d="M7.33333 27.6752L13.5667 28.7749C14.1167 28.7749 14.4833 29.3248 14.4833 29.8746V34.4566C14.4833 35.0064 14.1167 35.373 13.5667 35.1897L7.33333 34.09C6.78333 34.09 6.41667 33.5402 6.41667 32.9904V28.4084C6.41667 27.8585 6.78333 27.492 7.33333 27.6752Z" fill="#FEFEFE"/>
<path d="M7.51659 26.5756L13.7499 27.492C14.2999 27.492 14.6666 27.8585 15.0333 28.2251C15.3999 28.5916 15.5833 29.1415 15.5833 29.6913V34.2733C15.5833 34.2733 15.5833 34.4566 15.5833 34.6399C15.5833 35.1897 15.2166 35.5563 15.0333 35.7395C14.6666 36.1061 14.2999 36.1061 13.7499 36.1061C13.5666 36.1061 13.5666 36.1061 13.3833 36.1061L7.14992 35.0064C6.59992 35.0064 6.23325 34.6399 5.86659 34.2733C5.49992 33.9067 5.31659 33.3569 5.31659 32.8071V28.2251C5.31659 28.0418 5.31659 28.0418 5.31659 27.8585C5.31659 27.3087 5.68325 26.9421 5.86659 26.7588C6.23325 26.3923 6.59992 26.3923 7.14992 26.3923C7.33325 26.3923 7.33325 26.3923 7.51659 26.5756ZM13.3833 29.8746L7.51659 28.9582V32.9903L13.3833 33.9067V29.8746Z" fill="black"/>
<path fill-rule="evenodd" clip-rule="evenodd" d="M28.0499 27.6752L21.8166 28.7749C21.2666 28.7749 20.8999 29.3248 20.8999 29.8746V34.4566C20.8999 35.0064 21.2666 35.373 21.8166 35.1897L28.0499 34.09C28.5999 34.09 28.9666 33.5402 28.9666 32.9904V28.4084C28.9666 27.8585 28.5999 27.492 28.0499 27.6752Z" fill="#FEFEFE"/>
<path d="M27.8667 28.7749L22 29.8746V33.9067L27.8667 32.9903C27.8667 32.8071 27.8667 28.7749 27.8667 28.7749ZM21.6334 27.492L27.8667 26.3923C28.05 26.3923 28.05 26.3923 28.2334 26.3923C28.7834 26.3923 29.15 26.5756 29.5167 26.7588C29.8834 27.1254 30.0667 27.492 30.0667 27.8585C30.0667 28.0418 30.0667 28.0418 30.0667 28.2251V32.8071C30.0667 33.3569 29.8834 33.9067 29.5167 34.2733C29.15 34.6399 28.7834 35.0064 28.2334 35.0064L22 36.1061C21.8167 36.1061 21.8167 36.1061 21.6334 36.1061C21.0834 36.1061 20.7167 35.9228 20.35 35.7395C19.9834 35.373 19.8 35.0064 19.8 34.6399C19.8 34.4566 19.8 34.4566 19.8 34.2733V29.6913C19.8 29.1415 19.9834 28.5916 20.35 28.2251C20.7167 27.8585 21.0834 27.6752 21.6334 27.492Z" fill="black"/>
<path fill-rule="evenodd" clip-rule="evenodd" d="M41.25 51.5016V53.8843C41.25 54.6174 40.7 55.3505 39.7833 55.3505H32.6333C31.9 55.3505 31.1667 54.8007 31.1667 53.8843V51.5016C31.1667 50.7685 31.7167 50.0354 32.6333 50.0354H39.7833C40.7 50.2187 41.25 50.7685 41.25 51.5016Z" fill="#F6FC9F"/>
<path d="M42.3499 51.5016V53.8842C42.3499 54.6173 41.9833 55.1672 41.6166 55.717C41.2499 56.2669 40.5166 56.4501 39.7833 56.4501H32.6333C31.8999 56.4501 31.3499 56.0836 30.7999 55.717C30.4333 55.3505 30.0666 54.6173 30.0666 53.8842V51.5016C30.0666 50.7685 30.4333 50.2186 30.7999 49.6688C31.1666 49.3022 31.8999 48.9357 32.6333 48.9357H39.7833C40.5166 48.9357 41.0666 49.3022 41.6166 49.6688C42.1666 50.0353 42.3499 50.7685 42.3499 51.5016ZM40.1499 53.8842V51.5016V51.3183H39.9666H32.8166H32.6333V51.5016V53.8842V54.0675C32.6333 54.0675 32.6333 54.0675 32.8166 54.0675H39.9666C39.9666 54.0675 39.9666 54.0675 40.1499 53.8842Z" fill="black"/>
<path fill-rule="evenodd" clip-rule="evenodd" d="M41.25 48.7524V46.3698C41.25 45.6367 40.7 44.9036 39.7833 44.9036H32.6333C31.9 44.9036 31.1667 45.4534 31.1667 46.3698V48.7524C31.1667 49.4856 31.7167 50.2187 32.6333 50.2187H39.7833C40.7 50.2187 41.25 49.4856 41.25 48.7524Z" fill="#F6FC9F"/>
<path d="M40.1499 48.7524V46.3698V46.1865H39.9666H32.8166H32.6333C32.6333 46.1865 32.6333 46.1865 32.6333 46.3698V48.7524V48.9357H32.8166H39.9666C39.9666 48.9357 39.9666 48.9357 40.1499 48.7524C40.1499 48.9357 40.1499 48.7524 40.1499 48.7524ZM42.3499 46.553V48.9357C42.3499 49.6688 41.9833 50.2186 41.6166 50.7685C41.2499 51.3183 40.5166 51.5016 39.7833 51.5016H32.6333C31.8999 51.5016 31.3499 51.135 30.7999 50.7685C30.4333 50.4019 30.0666 49.6688 30.0666 48.9357V46.553C30.0666 45.8199 30.4333 45.2701 30.7999 44.7202C31.1666 44.3537 31.8999 43.9871 32.6333 43.9871H39.7833C40.5166 43.9871 41.0666 44.3537 41.6166 44.7202C42.1666 45.0868 42.3499 45.8199 42.3499 46.553Z" fill="black"/>
<path fill-rule="evenodd" clip-rule="evenodd" d="M41.25 41.4213V43.8039C41.25 44.537 40.7 45.2701 39.7833 45.2701H32.6333C31.9 45.2701 31.1667 44.7203 31.1667 43.8039V41.4213C31.1667 40.6881 31.7167 39.955 32.6333 39.955H39.7833C40.7 40.1383 41.25 40.6881 41.25 41.4213Z" fill="#F6FC9F"/>
<path d="M42.3499 41.4212V43.8038C42.3499 44.537 41.9833 45.0868 41.6166 45.6366C41.2499 46.1865 40.5166 46.3698 39.7833 46.3698H32.6333C31.8999 46.3698 31.3499 46.0032 30.7999 45.6366C30.4333 45.2701 30.0666 44.537 30.0666 43.8038V41.4212C30.0666 40.6881 30.4333 40.1382 30.7999 39.5884C31.1666 39.2218 31.8999 38.8553 32.6333 38.8553H39.7833C40.5166 38.8553 41.0666 39.2218 41.6166 39.5884C42.1666 39.955 42.3499 40.6881 42.3499 41.4212ZM40.1499 43.8038V41.4212V41.2379H39.9666H32.8166H32.6333V41.4212V43.8038V43.9871C32.6333 43.9871 32.6333 43.9871 32.8166 43.9871H39.9666C39.9666 43.9871 39.9666 43.9871 40.1499 43.8038Z" fill="black"/>
<path fill-rule="evenodd" clip-rule="evenodd" d="M41.25 38.672V36.2894C41.25 35.5562 40.7 34.8231 39.7833 34.8231H32.6333C31.9 34.8231 31.1667 35.373 31.1667 36.2894V38.672C31.1667 39.4051 31.7167 40.1382 32.6333 40.1382H39.7833C40.7 40.1382 41.25 39.4051 41.25 38.672Z" fill="#F6FC9F"/>
<path d="M40.1499 38.6721V36.2894V36.1061H39.9666H32.8166H32.6333C32.6333 36.1061 32.6333 36.1061 32.6333 36.2894V38.6721V38.8553H32.8166H39.9666C39.9666 38.8553 39.9666 38.8553 40.1499 38.6721C40.1499 38.8553 40.1499 38.6721 40.1499 38.6721ZM42.3499 36.2894V38.6721C42.3499 39.4052 41.9833 39.955 41.6166 40.5049C41.2499 41.0547 40.5166 41.238 39.7833 41.238H32.6333C31.8999 41.238 31.3499 40.8714 30.7999 40.5049C30.4333 40.1383 30.0666 39.4052 30.0666 38.6721V36.2894C30.0666 35.5563 30.4333 35.0065 30.7999 34.4566C31.1666 34.0901 31.8999 33.7235 32.6333 33.7235H39.7833C40.5166 33.7235 41.0666 34.0901 41.6166 34.4566C42.1666 34.8232 42.3499 35.7396 42.3499 36.2894Z" fill="black"/>
<path fill-rule="evenodd" clip-rule="evenodd" d="M41.25 51.5016V53.8843C41.25 54.6174 41.8 55.3505 42.7167 55.3505H49.8667C50.6 55.3505 51.3333 54.8007 51.3333 53.8843V51.5016C51.3333 50.7685 50.7833 50.0354 49.8667 50.0354H42.7167C41.8 50.2187 41.25 50.7685 41.25 51.5016Z" fill="#F6FC9F"/>
<path d="M42.3499 51.5016V53.8842V54.0675H42.5333H49.6833H49.8666C49.8666 54.0675 49.8666 54.0675 49.8666 53.8842V51.5016V51.3183H49.6833H42.5333C42.5333 51.3183 42.5333 51.3183 42.3499 51.5016ZM40.1499 53.8842V51.5016C40.1499 50.7685 40.5166 50.2186 40.8833 49.6688C41.2499 49.1189 41.9832 48.9357 42.7166 48.9357H49.8666C50.5999 48.9357 51.1499 49.3022 51.6999 49.6688C52.2499 50.0353 52.4333 50.7685 52.4333 51.5016V53.8842C52.4333 54.6173 52.0666 55.1672 51.6999 55.717C51.3333 56.0836 50.5999 56.4501 49.8666 56.4501H42.7166C41.9832 56.4501 41.4333 56.0836 40.8833 55.717C40.3333 55.3505 40.1499 54.6173 40.1499 53.8842Z" fill="black"/>
<path fill-rule="evenodd" clip-rule="evenodd" d="M41.25 48.7524V46.3698C41.25 45.6367 41.8 44.9036 42.7167 44.9036H49.8667C50.6 44.9036 51.3333 45.4534 51.3333 46.3698V48.7524C51.3333 49.4856 50.7833 50.2187 49.8667 50.2187H42.7167C41.8 50.2187 41.25 49.4856 41.25 48.7524Z" fill="#F6FC9F"/>
<path d="M40.1499 48.7524V46.3698C40.1499 45.6367 40.5166 45.0869 40.8833 44.537C41.2499 43.9872 41.9832 43.8039 42.7166 43.8039H49.8666C50.5999 43.8039 51.1499 44.1705 51.6999 44.537C52.0666 44.9036 52.4333 45.6367 52.4333 46.3698V48.7524C52.4333 49.4856 52.0666 50.0354 51.6999 50.5852C51.3333 51.1351 50.5999 51.3184 49.8666 51.3184H42.7166C41.9832 51.3184 41.4333 50.9518 40.8833 50.5852C40.3333 50.2187 40.1499 49.4856 40.1499 48.7524ZM42.3499 46.5531V48.9357V49.119H42.5333H49.6833H49.8666V48.9357V46.5531V46.3698C49.8666 46.3698 49.8666 46.3698 49.6833 46.3698H42.5333C42.5333 46.1865 42.5333 46.1865 42.3499 46.5531C42.3499 46.3698 42.3499 46.3698 42.3499 46.5531Z" fill="black"/>
<path fill-rule="evenodd" clip-rule="evenodd" d="M41.25 41.4213V43.8039C41.25 44.537 41.8 45.2701 42.7167 45.2701H49.8667C50.6 45.2701 51.3333 44.7203 51.3333 43.8039V41.4213C51.3333 40.6881 50.7833 39.955 49.8667 39.955H42.7167C41.8 40.1383 41.25 40.6881 41.25 41.4213Z" fill="#F6FC9F"/>
<path d="M42.3499 41.4212V43.8038V43.9871H42.5333H49.6833H49.8666C49.8666 43.9871 49.8666 43.9871 49.8666 43.8038V41.4212V41.2379H49.6833H42.5333C42.5333 41.2379 42.5333 41.2379 42.3499 41.4212C42.3499 41.2379 42.3499 41.4212 42.3499 41.4212ZM40.1499 43.8038V41.4212C40.1499 40.6881 40.5166 40.1382 40.8833 39.5884C41.2499 39.0386 41.9832 38.8553 42.7166 38.8553H49.8666C50.5999 38.8553 51.1499 39.2218 51.6999 39.5884C52.2499 39.955 52.4333 40.6881 52.4333 41.4212V43.8038C52.4333 44.537 52.0666 45.0868 51.6999 45.6366C51.3333 46.0032 50.5999 46.3698 49.8666 46.3698H42.7166C41.9832 46.3698 41.4333 46.0032 40.8833 45.6366C40.3333 45.2701 40.1499 44.3537 40.1499 43.8038Z" fill="black"/>
<path fill-rule="evenodd" clip-rule="evenodd" d="M41.25 38.672V36.2894C41.25 35.5562 41.8 34.8231 42.7167 34.8231H49.8667C50.6 34.8231 51.3333 35.373 51.3333 36.2894V38.672C51.3333 39.4051 50.7833 40.1382 49.8667 40.1382H42.7167C41.8 40.1382 41.25 39.4051 41.25 38.672Z" fill="#F6FC9F"/>
<path d="M40.1499 38.6721V36.2894C40.1499 35.5563 40.5166 35.0065 40.8833 34.4566C41.2499 33.9068 41.9832 33.7235 42.7166 33.7235H49.8666C50.5999 33.7235 51.1499 34.0901 51.6999 34.4566C52.0666 34.8232 52.4333 35.5563 52.4333 36.2894V38.6721C52.4333 39.4052 52.0666 39.955 51.6999 40.5049C51.3333 41.0547 50.5999 41.238 49.8666 41.238H42.7166C41.9832 41.238 41.4333 40.8714 40.8833 40.5049C40.3333 40.1383 40.1499 39.4052 40.1499 38.6721ZM42.3499 36.2894V38.6721V38.8553H42.5333H49.6833H49.8666V38.6721V36.2894V36.1061C49.8666 36.1061 49.8666 36.1061 49.6833 36.1061H42.5333C42.5333 36.1061 42.5333 36.1061 42.3499 36.2894Z" fill="black"/>
<path fill-rule="evenodd" clip-rule="evenodd" d="M41.25 28.5916V26.209C41.25 25.4759 41.8 24.7427 42.7167 24.7427H49.8667C50.6 24.7427 51.3333 25.2926 51.3333 26.209V28.5916C51.3333 29.3247 50.7833 30.0578 49.8667 30.0578H42.7167C41.8 30.0578 41.25 29.3247 41.25 28.5916Z" fill="#F6FC9F"/>
<path d="M40.1499 28.5917V26.209C40.1499 25.4759 40.5166 24.9261 40.8833 24.3762C41.2499 23.8264 41.9832 23.6431 42.7166 23.6431H49.8666C50.5999 23.6431 51.1499 24.0097 51.6999 24.3762C52.0666 24.7428 52.4333 25.4759 52.4333 26.209V28.5917C52.4333 29.3248 52.0666 29.8746 51.6999 30.4245C51.3333 30.9743 50.5999 31.1576 49.8666 31.1576H42.7166C41.9832 31.1576 41.4333 30.791 40.8833 30.4245C40.3333 30.0579 40.1499 29.3248 40.1499 28.5917ZM42.3499 26.209V28.5917V28.775H42.5333H49.6833H49.8666V28.5917V26.209V26.0258C49.8666 26.0258 49.8666 26.0258 49.6833 26.0258H42.5333C42.5333 26.0258 42.5333 26.0258 42.3499 26.209Z" fill="black"/>
<path fill-rule="evenodd" clip-rule="evenodd" d="M41.25 31.3409V33.7235C41.25 34.4566 41.8 35.1897 42.7167 35.1897H49.8667C50.6 35.1897 51.3333 34.6399 51.3333 33.7235V31.3409C51.3333 30.6078 50.7833 29.8746 49.8667 29.8746H42.7167C41.8 29.8746 41.25 30.6078 41.25 31.3409Z" fill="#F6FC9F"/>
<path d="M42.3499 31.3408V33.7235V33.9067H42.5333H49.6833H49.8666C49.8666 33.9067 49.8666 33.9067 49.8666 33.7235V31.3408V31.1575H49.6833H42.5333C42.5333 31.1575 42.5333 31.1575 42.3499 31.3408C42.3499 31.1575 42.3499 31.3408 42.3499 31.3408ZM40.1499 33.7235V31.3408C40.1499 30.6077 40.5166 30.0579 40.8833 29.508C41.2499 29.1415 41.9832 28.7749 42.7166 28.7749H49.8666C50.5999 28.7749 51.1499 29.1415 51.6999 29.508C52.0666 29.8746 52.4333 30.6077 52.4333 31.3408V33.7235C52.4333 34.4566 52.0666 35.0064 51.6999 35.5562C51.3333 35.9228 50.5999 36.2894 49.8666 36.2894H42.7166C41.9832 36.2894 41.4333 35.9228 40.8833 35.5562C40.3333 35.1897 40.1499 34.2733 40.1499 33.7235Z" fill="black"/>
<path fill-rule="evenodd" clip-rule="evenodd" d="M54.8167 34.8231C60.5 34.8231 65.0834 39.4051 65.0834 45.0868C65.0834 50.7685 60.5 55.3505 54.8167 55.3505C49.1334 55.3505 44.55 50.7685 44.55 45.0868C44.55 39.4051 49.1334 34.8231 54.8167 34.8231Z" fill="#F6FC9F"/>
<path d="M54.8166 33.7235C57.9333 33.7235 60.6833 35.0065 62.8833 37.0225C65.0833 39.0386 66.1833 41.9711 66.1833 45.0869C66.1833 48.2026 64.9 50.9518 62.8833 53.1512C60.8666 55.1672 57.9333 56.4502 54.8166 56.4502C51.7 56.4502 48.7666 55.1672 46.75 53.1512C44.7333 51.1351 43.45 48.2026 43.45 45.0869C43.45 41.9711 44.7333 39.2219 46.75 37.0225C48.7666 35.0065 51.5166 33.7235 54.8166 33.7235ZM61.05 38.6721C59.4 37.0225 57.2 36.1061 54.6333 36.1061C52.0666 36.1061 49.8666 37.2058 48.2166 38.6721C46.5666 40.3216 45.65 42.5209 45.65 45.0869C45.65 47.6528 46.75 49.8521 48.2166 51.5016C49.8666 53.1512 52.0666 54.0676 54.6333 54.0676C57.2 54.0676 59.4 52.9679 61.05 51.5016C62.7 49.8521 63.6166 47.6528 63.6166 45.0869C63.8 42.5209 62.7 40.3216 61.05 38.6721Z" fill="black"/>
<path d="M51.7 39.7717C51.7 39.2218 52.25 38.672 52.8 38.672C53.35 38.672 53.9 39.2218 53.9 39.7717V50.4019C53.9 50.9517 53.35 51.5016 52.8 51.5016C52.25 51.5016 51.7 50.9517 51.7 50.4019V39.7717Z" fill="black"/>
<path d="M56.4667 46.3698C57.0167 46.3698 57.5667 46.9197 57.5667 47.4695C57.5667 48.0193 57.0167 48.5692 56.4667 48.5692H50.6C50.05 48.5692 49.5 48.0193 49.5 47.4695C49.5 46.9197 50.05 46.3698 50.6 46.3698H56.4667Z" fill="black"/>
<path fill-rule="evenodd" clip-rule="evenodd" d="M52.9833 43.0707V40.8713C52.9833 40.1382 53.5333 39.5884 54.2666 39.5884H57.5666C58.2999 39.5884 58.8499 40.1382 58.8499 40.8713V43.0707C58.8499 43.8038 58.2999 44.3537 57.5666 44.3537H54.2666C53.5333 44.3537 52.9833 43.8038 52.9833 43.0707Z" fill="#F6FC9F"/>
<path d="M51.7 43.0708V40.8714C51.7 40.1383 51.8833 39.5884 52.4333 39.2219C52.8 38.8553 53.5333 38.4888 54.0833 38.4888H57.3833C58.1166 38.4888 58.6666 38.672 59.0333 39.2219C59.4 39.5884 59.7666 40.3216 59.7666 40.8714V43.0708C59.7666 43.8039 59.5833 44.3537 59.0333 44.7203C58.6666 45.0868 57.9333 45.4534 57.3833 45.4534H54.0833C53.35 45.4534 52.8 45.2701 52.4333 44.7203C52.0666 44.3537 51.7 43.6206 51.7 43.0708ZM54.0833 40.8714V43.0708H57.3833V40.8714H54.0833C54.0833 40.6881 54.0833 40.6881 54.0833 40.8714Z" fill="black"/>
</svg>
