<svg width="66" height="49" viewBox="0 0 66 49" fill="none" xmlns="http://www.w3.org/2000/svg">
<path d="M63.5455 37.9144C63.3636 37.3555 63.6364 36.7966 64.1818 36.5171C64.7273 36.3308 65.2727 36.6103 65.5455 37.1692C65.7273 37.635 65.8182 38.0076 65.9091 38.4734C66 38.9392 66 39.4049 66 39.8707C66 42.0133 65.1818 43.9696 63.8182 45.3669C62.4545 46.7643 60.5455 47.6027 58.4546 47.6027C56.4546 47.6027 54.7273 46.8574 53.3636 45.5532C52 44.249 51.0909 42.4791 50.9091 40.5228C50.8182 39.9639 51.2727 39.4049 51.8182 39.4049C52.3636 39.4049 52.9091 39.7776 52.9091 40.3365C53 41.7338 53.7273 43.038 54.6364 43.9696C55.6364 44.9011 56.9091 45.4601 58.3636 45.4601C59.9091 45.4601 61.2727 44.808 62.2727 43.7833C63.2727 42.7585 63.9091 41.3612 63.9091 39.7776C63.9091 39.4049 63.9091 39.1255 63.8182 38.7528C63.8182 38.5665 63.7273 38.1939 63.5455 37.9144Z" fill="black"/>
<path fill-rule="evenodd" clip-rule="evenodd" d="M33.8182 39.4981C32.3637 37.9145 30.9091 36.424 29.4546 34.9335C27.6364 32.9772 28 32.7909 25.4546 32.3251C22.8182 31.8593 21.3637 31.673 18.7273 31.1141C18.0909 31.0209 16 30.7415 15.6364 30.0894C15.0909 29.0647 15.1818 27.1084 17.0909 27.1084C19.9091 27.2015 22.8182 27.2947 25.5455 27.3878C26.8182 27.3878 26.5455 27.3878 26.6364 25.8974C26.8182 23.8479 27.0909 21.7053 27.2727 19.8422C27.2727 19.6559 27.2727 19.4696 27.3637 19.2833C27.6364 18.1654 29.8182 18.6312 29.8182 19.3764C29.8182 19.5627 29.8182 19.6559 29.8182 19.8422C29.9091 21.3327 30 23.1027 30 24.8726C30.1818 29.9962 31.0909 31.4867 34.1818 35.2129C35.7273 37.0761 37.2727 38.1939 38 39.8707C38.7273 41.6407 38.0909 41.3612 36.5455 41.1749C35.3637 40.9886 35.1818 40.9886 33.8182 39.4981ZM47.5455 36.7966C48 35.1198 48.4546 33.443 48.9091 31.7662C49.4546 29.7167 49.4546 30.0894 48.8182 28.1331C48.6364 27.481 48.5455 27.3878 48.3637 26.8289C48.0909 25.8974 47.5455 25.2453 48.3637 24.8726C49.4546 24.3137 50.7273 23.9411 51.7273 23.1958C53.4546 21.7985 53.2727 21.7053 52.5455 19.3764C51.8182 17.0475 55.1818 15.1844 56.1818 18.1654C56.9091 20.2148 57.6364 22.2643 58.3636 24.3137C59 26.0837 59.6364 29.1578 58.8182 31.0209C53.9091 34.1882 44.8182 46.578 47.5455 36.7966Z" fill="#E60005"/>
<path fill-rule="evenodd" clip-rule="evenodd" d="M54.4545 36.6103C55.7273 33.7224 57.1818 32.0456 59 30.9278C60.5454 32.0456 61.6364 32.7909 63.0909 33.9088C64.1818 34.8403 62.6363 35.6787 61.5454 36.8897C60.6363 37.5418 60.1818 37.2624 59.0909 37.1692C57 36.7966 56.4545 36.7966 54.4545 36.6103Z" fill="#E60005"/>
<path fill-rule="evenodd" clip-rule="evenodd" d="M30.1818 26.7357C30 26.8289 38.9091 27.8536 40.2727 27.7605C43.1818 27.481 37.1818 32.5114 37.4545 37.0761C37.6364 39.7776 37.8182 39.1255 36.2727 37.4487C35.6364 36.7966 34.9091 36.0513 34.1818 35.1198C33.6364 34.3745 33.0909 33.8156 32.7273 33.2567C31.3636 31.1141 30.3636 28.7852 30.1818 26.7357C30.1818 26.8289 30.1818 26.7357 30.1818 26.7357Z" fill="#E60005"/>
<path fill-rule="evenodd" clip-rule="evenodd" d="M48.2727 19.6559C49.0909 19.3764 49.9091 19.7491 50.2727 20.5875L51.3636 23.3821C50.4546 23.8479 49.5455 24.3137 48.6364 24.7795L47.4546 21.7053C47.0909 20.8669 47.4546 19.9354 48.2727 19.6559Z" fill="#E60005"/>
<path d="M48.6364 20.6806C47.8182 20.9601 48.9091 22.8232 49.0909 23.289L50 22.8232C49.8182 22.3574 49.4546 20.308 48.6364 20.6806ZM60.0909 30.3688C64.0909 33.0703 66.4546 34.0951 62.0909 37.635C60.5455 38.846 54.9091 37.7281 53.0909 37.5418C49 41.5475 47.5455 42.1065 43 42.4791C38.9091 42.8517 33.2727 41.1749 29.4546 42.6654C28.2727 43.1312 26.0909 40.3365 31.9091 40.1502H32C32 39.1255 30.2727 37.2624 29.4546 36.5171C28.4546 35.6787 15.4546 34.654 15.4546 42.1996C15.4546 43.597 13.3636 43.597 13.3636 42.1996C13.3636 35.3061 20.2727 33.9087 25.1818 34.0019H27.0909C24.8182 32.4183 15.9091 32.9772 14.7273 30.6483C13.7273 28.5989 14.7273 26.1768 17.0909 26.1768C19.9091 26.1768 22.7273 26.3631 25.5455 26.4563L25.6364 25.8973C26 22.8232 25.7273 18.4449 27.6364 17.7928C27.6364 14.9049 27.3636 4.6578 27.6364 2.51521C26.7273 2.60837 24.9091 3.1673 24.7273 1.76996C24.6364 1.21103 25.0909 0.652093 25.6364 0.558937C39.0909 -1.11787 51.2727 0.838405 54.7273 15.557C56.4546 15.7433 57.1818 17.5133 57.8182 19.1901C59 22.6369 61 26.4563 60.0909 30.3688ZM57.3636 33.7224C56.9091 34.2814 56.4546 34.9335 56.0909 35.6787C59.0909 35.9582 60.3636 36.8897 62.3636 34.5608H62.4546L59 32.0456C58.3636 32.6046 57.8182 33.0703 57.3636 33.7224ZM29.6364 17.7928C31.5455 18.6312 30.9091 22.5437 31.0909 25.8973L40.0909 26.7357C45.3636 26.1768 38.1818 33.443 38.4546 36.9829C38.6364 39.3118 38.8182 38.5665 39.1818 40.3365C41.5455 40.5228 43.8182 40.3365 46 39.7776C45.8182 36.5171 48.8182 31.673 48 28.9715C47.6364 27.8536 46.2727 25.2453 47.1818 24.3137L46.9091 23.5684C46.3636 24.1274 45.3636 25.5247 44.5455 24.5932C43.6364 23.5684 45.6364 22.2643 46.2727 21.6122C45.6364 18.538 50 17.1407 51.1818 20.1217L51.6364 21.4259C51.7273 21.7053 51.7273 21.8916 51.9091 21.519C52.3636 20.308 50.2727 17.9791 52.6364 16.116C49.9091 4.0057 40.6364 1.4905 29.5455 2.23574L29.6364 17.7928ZM33.5455 32.6977L36.4546 36.1445C36.7273 33.2567 38.3636 31.0209 39.7273 28.8783L31.4546 28.0399C31.9091 29.6236 32.6364 31.1141 33.5455 32.6977ZM30.9091 34.9335C33.4546 36.9829 34.3636 39.8707 37 40.1502C36.2727 38.5665 34.6364 37.3555 33.4546 35.9582C28.5455 29.903 29.1818 27.5741 28.7273 19.6559L28.2727 19.5627L27.5455 26.5494C27.4546 28.3194 27.4546 28.3194 25.4546 28.3194L17 28.0399C16.1818 28.0399 15.1818 29.6236 18.4546 29.903C21.1818 30.0894 22.9091 30.6483 25.5455 31.1141C28.7273 31.8593 29.1818 33.0703 30.9091 34.9335ZM37.7273 40.2433C37.8182 40.1502 37.7273 40.1502 37.7273 40.2433V40.2433ZM50 32.0456L47.8182 39.4981C48.2727 39.5913 56.7273 31.2072 58.0909 30.2757C58.0909 28.3194 58.7273 28.1331 57.5455 24.5932C56.6364 21.8916 55.4546 16.4886 53.9091 17.8859C52.6364 19.1901 55.9091 20.5875 53.2727 23.289C52.3636 24.3137 50.8182 24.8726 49.5455 25.5247C49 25.711 49.0909 25.6179 49.3636 26.27C50.1818 28.2262 50.6364 29.8099 50 32.0456Z" fill="black"/>
<path d="M22 37.2624C23.5455 37.2624 25 37.9145 26 38.9392C27 39.9639 27.6364 41.4544 27.6364 43.038C27.6364 44.6217 27 46.1122 26 47.1369C25 48.1616 23.5455 48.8137 22 48.8137C20.4546 48.8137 19 48.1616 18 47.1369C17 46.1122 16.3636 44.6217 16.3636 43.038C16.3636 41.4544 17 39.9639 18 38.9392C19 38.0076 20.4546 37.2624 22 37.2624ZM24.6364 40.5228C24 39.8707 23.0909 39.4049 22.0909 39.4049C21.0909 39.4049 20.1818 39.7776 19.5455 40.5228C18.9091 41.1749 18.4546 42.1065 18.4546 43.1312C18.4546 44.1559 18.8182 45.0875 19.5455 45.7395C20.1818 46.3916 21.0909 46.8574 22.0909 46.8574C23.0909 46.8574 24 46.4848 24.6364 45.7395C25.2727 45.0875 25.7273 44.1559 25.7273 43.1312C25.6364 42.1065 25.2727 41.1749 24.6364 40.5228Z" fill="black"/>
<path d="M59.6364 40.057C59.8182 39.4981 60.3636 39.2186 60.9091 39.3118C61.4545 39.4049 61.7273 40.057 61.6364 40.616C61.4545 41.3612 61 42.0133 60.3636 42.4791C59.7273 42.9449 59 43.2243 58.2727 43.2243C57.5455 43.2243 56.8182 42.9449 56.2727 42.5722C55.7273 42.1996 55.2727 41.5475 55 40.8954C54.8182 40.3365 55.0909 39.7776 55.6364 39.4981C56.1818 39.3118 56.7273 39.5912 57 40.1502C57.0909 40.4297 57.2727 40.7091 57.5455 40.8954C57.8182 41.0817 58.0909 41.1749 58.3636 41.1749C58.7273 41.1749 59 41.0817 59.2727 40.8954C59.3636 40.7091 59.5455 40.4297 59.6364 40.057Z" fill="black"/>
<path d="M22 40.4297C22.7273 40.4297 23.4546 40.7091 23.9091 41.2681C24.3637 41.7338 24.7273 42.4791 24.7273 43.2243C24.7273 43.9696 24.4546 44.7148 23.9091 45.1806C23.4546 45.6464 22.7273 46.019 22 46.019C21.2728 46.019 20.5455 45.7395 20.0909 45.1806C19.6364 44.7148 19.2728 43.9696 19.2728 43.2243C19.2728 42.4791 19.5455 41.7338 20.0909 41.2681C20.6364 40.7091 21.2728 40.4297 22 40.4297Z" fill="black"/>
<path d="M19.8182 11.4582C20.3636 11.4582 20.8182 11.924 20.8182 12.4829C20.8182 13.0418 20.3636 13.5076 19.8182 13.5076H1C0.454545 13.6008 0 13.0418 0 12.4829C0 11.924 0.454545 11.4582 1 11.4582H19.8182Z" fill="black"/>
<path d="M21.6364 16.0228C22.1818 16.0228 22.6364 16.4886 22.6364 17.0475C22.6364 17.6065 22.1818 18.0723 21.6364 18.0723H11C10.4545 18.0723 10 17.6065 10 17.0475C10 16.4886 10.4545 16.0228 11 16.0228H21.6364Z" fill="black"/>
<path d="M19.8182 20.9601C20.3637 20.9601 20.8182 21.4259 20.8182 21.9848C20.8182 22.5437 20.3637 23.0095 19.8182 23.0095H5.27277C4.72731 23.0095 4.27277 22.5437 4.27277 21.9848C4.27277 21.4259 4.72731 20.9601 5.27277 20.9601H19.8182Z" fill="black"/>
<path d="M61.2727 38.1008C61.6363 38.6597 61.8181 39.3118 61.8181 40.057C61.8181 41.0818 61.4545 41.9202 60.8181 42.5723C60.1818 43.2243 59.3636 43.597 58.3636 43.597C57.3636 43.597 56.5454 43.2243 55.909 42.5723C55.1818 41.9202 54.8181 40.9886 54.8181 40.057C54.8181 39.2186 54.9225 38.4734 55.468 37.9145C55.8316 37.9145 56.3722 38.1008 56.645 38.1008C57.1904 38.1939 57.8877 38.1615 58.9786 38.3478H59.0695C59.2513 38.3478 59.4285 38.3585 59.6807 38.3478C60.3091 38.3212 60.6363 38.2871 61.2727 38.1008Z" fill="black"/>
</svg>
