<svg width="64" height="58" viewBox="0 0 64 58" fill="none" xmlns="http://www.w3.org/2000/svg">
<path fill-rule="evenodd" clip-rule="evenodd" d="M32.0255 14.0536L32.9086 11.8155L30.8826 8.41974L35.8436 4.14936L38.6229 5.66715L41.532 4.76677L42.4151 0.882263L49.1423 1.26814L49.532 4.53524L51.9216 5.77005L55.9735 4.14936L60.1553 8.29111L57.7657 11.9441L59.2722 14.3108L62.441 15.1855L62.7008 20.4591L61.8177 21.9769L59.0384 22.8516L58.1294 24.7295L59.7917 27.868L55.6099 33.013L52.0514 30.8778L49.6359 31.2637L49.0125 35.2768L42.2852 35.6627L41.1683 31.8811L38.1034 30.8778L35.5839 32.7558L31.0125 28.2539L32.9086 24.9868L31.7917 22.3371L28.3631 21.3338L27.9735 15.0826L32.0255 14.0536Z" fill="#E60005"/>
<path fill-rule="evenodd" clip-rule="evenodd" d="M47.999 10.4263C51.2198 11.481 53.5315 14.4651 53.5315 17.9895C53.5315 22.3885 49.9471 25.9385 45.5055 25.9385C41.064 25.9385 37.4796 22.3885 37.4796 17.9895C37.4796 14.5166 39.7393 11.5582 42.8822 10.4777V17.5521L43.012 18.7612L45.2718 19.996L48.025 18.4525L48.077 17.8094L48.051 10.452L47.999 10.4263Z" fill="#F6FC9F"/>
<path fill-rule="evenodd" clip-rule="evenodd" d="M16.9355 44.3834H19.5329C20.3901 44.3834 21.0914 45.0779 21.0914 45.9269V55.3423C21.0914 56.1912 20.3901 56.8858 19.5329 56.8858H16.9355C16.0784 56.8858 15.3771 56.1912 15.3771 55.3423V45.9269C15.3771 45.0779 16.0784 44.3834 16.9355 44.3834Z" fill="#5B5B5B"/>
<path d="M16.9341 43.2253H19.5315C20.2847 43.2253 20.96 43.534 21.4535 44.0228C21.947 44.5115 22.2587 45.1804 22.2587 45.9264V55.3418C22.2587 56.0879 21.947 56.7567 21.4535 57.2455C20.96 57.7343 20.2847 58.043 19.5315 58.043H16.9341C16.1808 58.043 15.5055 57.7343 15.012 57.2455C14.5185 56.7567 14.2068 56.0879 14.2068 55.3418V45.9264C14.2068 45.1804 14.5185 44.5115 15.012 44.0228C15.5055 43.534 16.1808 43.2253 16.9341 43.2253ZM19.5315 45.5148H16.9341C16.8302 45.5148 16.7263 45.5663 16.6483 45.6434C16.5704 45.7206 16.5185 45.8235 16.5185 45.9264V55.3418C16.5185 55.4447 16.5704 55.5476 16.6483 55.6248C16.7263 55.702 16.8302 55.7534 16.9341 55.7534H19.5315C19.6354 55.7534 19.7393 55.702 19.8172 55.6248C19.8951 55.5476 19.947 55.4447 19.947 55.3418V45.9264C19.947 45.8235 19.8951 45.7206 19.8172 45.6434C19.7393 45.5663 19.6354 45.5148 19.5315 45.5148Z" fill="black"/>
<path fill-rule="evenodd" clip-rule="evenodd" d="M30 26.5814L28.3896 45.1292C28.2077 47.2902 25.8441 49.0652 22.7272 49.0652H21.6363V45.6695C21.6363 44.9749 20.8051 44.3832 19.7922 44.3832H16.7272C15.7142 44.3832 14.8831 44.9492 14.8831 45.6695V49.0652H13.2727C10.1558 49.0652 7.84411 47.2902 7.61034 45.1292L5.53242 25.8354C5.24671 23.1342 5.14281 24.4976 7.63632 25.398C8.80515 25.8354 10.2077 26.0669 11.7922 26.0669H24.3896C26.0519 26.0669 27.5324 25.8611 28.7532 25.3723C30.5714 24.652 30.1298 24.2404 29.948 26.5557L30 26.5814Z" fill="#E60005"/>
<path d="M31.1437 26.6843L29.5333 45.2321C29.4035 46.6727 28.5723 47.959 27.2736 48.8851C26.0788 49.7083 24.5203 50.2228 22.7281 50.2228H21.6372C20.9879 50.2228 20.4944 49.7083 20.4944 49.0909V45.6952C20.4944 45.6437 20.4684 45.7466 20.4424 45.7209L20.4164 45.6952C20.2606 45.618 20.0528 45.5666 19.819 45.5666H16.7541C16.4944 45.5666 16.2606 45.618 16.1048 45.7209L16.0528 45.7466V49.0909C16.0528 49.734 15.5333 50.2228 14.9099 50.2228H13.2996C11.5333 50.2228 9.97488 49.7083 8.80605 48.9108C7.50735 48.0104 6.67618 46.7242 6.52034 45.2836L4.36449 25.3466C4.20865 23.9574 4.13073 23.4172 5.27359 23.1856H5.35151C5.84501 23.1085 6.13073 23.2885 6.54631 23.5715L6.59826 23.623C6.88398 23.8288 7.37748 24.1375 8.07878 24.3947C8.62424 24.6005 9.19566 24.7549 9.84501 24.8578C10.4684 24.9607 11.1177 25.0121 11.845 25.0121H24.4424C25.2476 25.0121 26.0009 24.9607 26.6762 24.8578C27.2996 24.7549 27.871 24.6005 28.3905 24.4205C28.7281 24.2918 29.0138 24.1375 29.1957 24.0603C29.9489 23.6744 30.3385 23.4944 30.9879 24.1375L31.0138 24.1632C31.4294 24.6005 31.3775 24.9607 31.2736 25.6553C31.2476 25.9125 31.1697 26.2727 31.1437 26.7614V26.6843ZM27.2476 45.0263L28.832 26.6071C28.2606 26.7872 27.6632 26.9415 27.0138 27.0444C26.1827 27.1731 25.3255 27.2245 24.4164 27.2245H11.819C11.0138 27.2245 10.2087 27.1473 9.4554 27.0444C8.67618 26.9158 7.92294 26.7357 7.27359 26.4785C7.09177 26.4013 6.90995 26.3498 6.7541 26.2727L8.78008 45.0006C8.858 45.7724 9.35151 46.4669 10.1048 47.0072C10.91 47.5731 12.0009 47.9075 13.2996 47.9075H13.7671V45.6437C13.7671 44.8977 14.1567 44.2546 14.8061 43.8172C15.3255 43.4571 16.0268 43.2256 16.7541 43.2256H19.819C20.5203 43.2256 21.1957 43.4314 21.6892 43.7658L21.7671 43.8172C22.3905 44.2546 22.8061 44.8977 22.8061 45.6437V47.9075C24.0528 47.9075 25.1437 47.5474 25.9489 47.0072C26.7022 46.4927 27.1697 45.7981 27.2476 45.0521V45.0263Z" fill="black"/>
<path d="M12.9609 37.4888H15.3506L13.87 43.74L14.1298 43.5856C14.6493 43.2769 15.2467 42.9682 15.896 42.7367C16.5713 42.5052 17.3246 42.3508 18.1038 42.3508C18.8571 42.3508 19.5843 42.4795 20.2856 42.711C20.935 42.9168 21.5584 43.1998 22.1298 43.4827L22.7791 43.8172L20.3635 37.4888H23.0389C23.6882 37.4888 24.2596 37.7203 24.7012 38.0804C25.1947 38.4921 25.5064 39.0837 25.5064 39.7269V41.6048C25.5064 42.0164 25.4285 42.428 25.2726 42.8396C25.1168 43.2255 24.909 43.6114 24.6752 43.9458L24.1817 44.5889L25.0908 45.052L23.6363 45.3092L23.4285 45.5665L23.3506 45.3607L21.7921 45.6436C21.6363 45.6694 21.4545 45.6951 21.2986 45.7208C21.0908 45.7466 20.935 45.7466 20.7791 45.7466H15.2207C14.9869 45.7466 14.8051 45.7208 14.5713 45.6951L13.4285 45.5408L13.3765 45.7723L13.0389 45.4893L11.3506 45.2835L12.1558 44.7947L11.922 44.6146C11.4545 44.2288 11.0908 43.7914 10.8311 43.2769C10.5713 42.7624 10.4415 42.1965 10.4415 41.6305V39.7526C10.4415 39.1095 10.7532 38.5178 11.2467 38.1062C11.6882 37.746 12.2856 37.5145 12.909 37.5145L12.9609 37.4888Z" fill="black"/>
<path d="M19.0393 29.4113C18.8315 30.003 18.1822 30.3117 17.5588 30.1059C16.9614 29.9001 16.6497 29.257 16.8575 28.6396L21.351 16.0857C21.5588 15.494 22.2081 15.1853 22.8315 15.3911C23.4289 15.5969 23.7406 16.2401 23.5328 16.8575L19.0393 29.4113Z" fill="black"/>
<path d="M21.3237 12.6902C21.2978 12.0728 21.7913 11.5326 22.4406 11.5069C23.064 11.4812 23.6094 11.9699 23.6354 12.6131L23.9471 20.6651C23.9731 21.2825 23.4796 21.8227 22.8302 21.8484C22.2069 21.8741 21.6614 21.3854 21.6354 20.7422L21.3237 12.6902Z" fill="black"/>
<path d="M27.0649 23.6492C26.8312 20.9223 25.6623 14.1051 24.987 10.092C24.7792 8.90865 24.6234 7.98254 24.5195 7.33941C24.4935 7.10789 24.1818 6.82491 23.7143 6.59338C23.0909 6.28468 22.2338 6.1046 21.1948 6.1046H14.3376C13.3247 6.1046 12.4415 6.31041 11.8182 6.61911C11.3506 6.85063 11.0649 7.10789 11.013 7.33941L8.54544 23.5977C9.84414 24.1122 13.4805 24.2151 17.2208 24.1637C21.1169 24.1122 25.1428 23.8293 27.013 23.6749L27.0649 23.6492ZM27.2467 9.73185C27.974 13.9508 29.1948 21.231 29.3766 23.8293L29.4286 24.3438C29.5065 25.4757 29.2987 25.7844 27.8961 25.8873C26.5454 25.9902 21.8961 26.3503 17.2727 26.4275C12.4675 26.5047 7.6883 26.2217 6.46752 24.884L6.10388 24.4724L8.75323 7.00499C8.90908 6.0017 9.66232 5.15277 10.8052 4.56109C11.7402 4.09804 12.961 3.81506 14.3636 3.81506H21.2208C22.5974 3.81506 23.8182 4.09804 24.7532 4.56109C25.8961 5.12705 26.6493 6.0017 26.8052 6.97926L27.2727 9.70613L27.2467 9.73185Z" fill="black"/>
<path d="M26.8054 4.40641C26.9093 5.02382 26.4677 5.6155 25.8444 5.69267C25.221 5.79557 24.6236 5.35825 24.5457 4.74084C24.5197 4.50931 24.208 4.25206 23.7405 4.02054C23.1171 3.71183 22.234 3.53176 21.221 3.53176H14.3898C13.3768 3.53176 12.4937 3.71183 11.8703 4.02054C11.4028 4.25206 11.1171 4.50931 11.0651 4.74084C10.9612 5.35825 10.3898 5.79557 9.76643 5.69267C9.14306 5.58977 8.7015 5.02382 8.80539 4.40641C8.96124 3.40313 9.71448 2.5542 10.8573 1.96252C11.7924 1.49947 13.0132 1.21649 14.3898 1.21649H21.221C22.5976 1.21649 23.8184 1.49947 24.7534 1.96252C25.8963 2.52848 26.6495 3.40313 26.8054 4.40641Z" fill="black"/>
<path d="M2 16.3169L5.97403 17.2944C6.54545 17.4231 6.88312 17.8347 7.11688 18.3492C7.24675 18.6579 7.35065 19.018 7.4026 19.3525L8.25974 24.2402C8.49351 25.5265 7.81818 26.1439 6.67532 26.3497C5.32468 26.5812 3.01299 25.9124 1.8961 25.578L1.48052 25.4493C0.961039 25.3464 0.545455 24.9605 0.285714 24.446C0.103896 24.0859 0 23.6486 0 23.1855V18.2977C0 18.0662 0.025974 17.8604 0.0779221 17.6546C0.155844 17.3202 0.311688 17.0372 0.493506 16.8057C0.805195 16.4712 1.19481 16.2654 1.63636 16.2654C1.74026 16.2654 1.87013 16.2912 1.97403 16.3169H2ZM5.06494 19.4296L2.31169 18.7351V23.1855V23.3141L2.54545 23.3913C3.35065 23.6228 4.93506 24.0859 5.8961 24.1116L5.11688 19.7383L5.03896 19.4296H5.06494Z" fill="black"/>
<path d="M23.143 38.2348L25.4806 44.3831C26.078 45.9524 25.8702 46.7241 24.9611 47.0585C24.2339 47.3415 23.5066 46.9042 22.5196 46.3125C21.4027 45.6437 19.7144 44.6146 18.104 44.6146C16.3118 44.6146 14.8313 45.8237 13.9482 46.5183C13.2469 47.0843 12.7793 47.4701 12.078 47.3158C11.117 47.0843 10.8832 46.364 11.2728 44.6918L12.9871 37.4888H22.8573L23.143 38.2348ZM22.8313 43.8429L21.2728 39.7783H14.8313L13.8962 43.74C14.9871 43.0197 16.3897 42.3508 18.13 42.3508C19.8962 42.3508 21.5586 43.1226 22.8313 43.8429ZM24.156 44.9491C24.3897 44.8719 24.2858 44.8976 24.078 44.9748L24.156 44.9491ZM12.6235 45.1291C12.7274 45.1549 12.7534 45.1549 12.7534 45.1291C12.4936 45.0777 12.3378 45.052 12.6235 45.1291Z" fill="black"/>
<path fill-rule="evenodd" clip-rule="evenodd" d="M7.32474 28.7684L13.6364 29.8231C14.1299 29.9003 14.5455 30.3891 14.5455 30.9036V35.4055C14.5455 35.92 14.1299 36.2544 13.6364 36.1772L7.32474 35.1225C6.83123 35.0453 6.41565 34.5565 6.41565 34.042V29.5401C6.41565 29.0256 6.83123 28.6912 7.32474 28.7684Z" fill="#FEFEFE"/>
<path d="M7.50718 27.6617L13.8189 28.7164C14.3383 28.7936 14.8319 29.1023 15.1435 29.4881C15.4812 29.874 15.689 30.3885 15.689 30.9288V35.4307C15.689 35.5336 15.689 35.6365 15.663 35.7651C15.5851 36.2281 15.3513 36.614 15.0137 36.897C14.676 37.18 14.2344 37.36 13.7669 37.36C13.663 37.36 13.5591 37.36 13.4293 37.3343L7.11757 36.2796C6.59809 36.2024 6.10458 35.8937 5.79289 35.5078C5.45523 35.122 5.24744 34.6074 5.24744 34.0672V29.5653C5.24744 29.4624 5.24744 29.3338 5.27341 29.2309C5.35133 28.7678 5.5851 28.382 5.92276 28.099C6.26042 27.816 6.70198 27.6359 7.16951 27.6359C7.27341 27.6359 7.37731 27.6359 7.50718 27.6617ZM13.4033 30.9545L7.55912 29.9769V34.0158L13.4033 34.9933V30.9545Z" fill="black"/>
<path fill-rule="evenodd" clip-rule="evenodd" d="M28.3109 28.7684L21.9992 29.8231C21.5057 29.9003 21.0901 30.3891 21.0901 30.9036V35.4055C21.0901 35.92 21.5057 36.2544 21.9992 36.1772L28.3109 35.1225C28.8044 35.0453 29.22 34.5565 29.22 34.042V29.5401C29.22 29.0256 28.8044 28.6912 28.3109 28.7684Z" fill="#FEFEFE"/>
<path d="M28.0777 29.9769L22.2336 30.9545V34.9933L28.0777 34.0158V29.9769ZM21.818 28.7164L28.1297 27.6617C28.2595 27.6359 28.3634 27.6359 28.4673 27.6359C28.9349 27.6359 29.3764 27.7903 29.7141 28.099C30.0517 28.382 30.2855 28.7678 30.3634 29.2309C30.3894 29.3595 30.3894 29.4624 30.3894 29.5653V34.0672C30.3894 34.6074 30.1816 35.122 29.844 35.5078C29.5063 35.8937 29.0388 36.2024 28.4933 36.2796L22.1816 37.3343C22.0517 37.36 21.9478 37.36 21.844 37.36C21.3764 37.36 20.9349 37.2057 20.5972 36.897C20.2595 36.614 20.0258 36.2281 19.9478 35.7651C19.9219 35.6365 19.9219 35.5336 19.9219 35.4307V30.9288C19.9219 30.3885 20.1297 29.8997 20.4673 29.4881C20.805 29.1023 21.2725 28.7936 21.818 28.7164Z" fill="black"/>
<path fill-rule="evenodd" clip-rule="evenodd" d="M41.4294 52.6414V54.931C41.4294 55.677 40.806 56.2944 40.0528 56.2944H32.7801C32.0268 56.2944 31.4034 55.677 31.4034 54.931V52.6414C31.4034 51.8954 32.0268 51.278 32.7801 51.278H40.0528C40.806 51.278 41.4294 51.8954 41.4294 52.6414Z" fill="#F6FC9F"/>
<path d="M42.5711 52.641V54.9305C42.5711 55.6251 42.2854 56.2425 41.8178 56.7056C41.3503 57.1686 40.7269 57.4516 40.0256 57.4516H32.7529C32.0516 57.4516 31.4282 57.1686 30.9607 56.7056C30.4932 56.2425 30.2075 55.6251 30.2075 54.9305V52.641C30.2075 51.9464 30.4932 51.329 30.9607 50.866C31.4282 50.4029 32.0516 50.1199 32.7529 50.1199H40.0256C40.7269 50.1199 41.3503 50.4029 41.8178 50.866C42.2854 51.329 42.5711 51.9464 42.5711 52.641ZM40.2594 54.9305V52.641C40.2594 52.5895 40.2334 52.5124 40.1815 52.4867C40.1295 52.4352 40.0776 52.4095 40.0256 52.4095H32.7529C32.701 52.4095 32.623 52.4352 32.5971 52.4867C32.5451 52.5381 32.5191 52.5895 32.5191 52.641V54.9305C32.5191 55.0077 32.5451 55.0592 32.5711 55.0849C32.623 55.1363 32.675 55.1363 32.7269 55.1363H39.9997C40.0516 55.1363 40.1295 55.1106 40.1555 55.0592C40.2075 55.0077 40.2334 54.9563 40.2334 54.9048L40.2594 54.9305Z" fill="black"/>
<path fill-rule="evenodd" clip-rule="evenodd" d="M41.4294 49.8883V47.5987C41.4294 46.8527 40.806 46.2353 40.0528 46.2353H32.7801C32.0268 46.2353 31.4034 46.8527 31.4034 47.5987V49.8883C31.4034 50.6343 32.0268 51.2517 32.7801 51.2517H40.0528C40.806 51.2517 41.4294 50.6343 41.4294 49.8883Z" fill="#F6FC9F"/>
<path d="M40.2594 49.8889V47.5993C40.2594 47.5479 40.2334 47.4707 40.1815 47.445C40.1295 47.3935 40.0776 47.3678 40.0256 47.3678H32.7529C32.675 47.3678 32.623 47.3935 32.5971 47.4192C32.5451 47.4707 32.5451 47.5221 32.5451 47.5736V49.8631C32.5451 49.9146 32.5711 49.9918 32.623 50.0175C32.675 50.0689 32.7269 50.0947 32.7789 50.0947H40.0516C40.1036 50.0947 40.1815 50.0689 40.2075 50.0175C40.2594 49.966 40.2854 49.9146 40.2854 49.8631L40.2594 49.8889ZM42.5711 47.5993V49.8889C42.5711 50.5834 42.2854 51.2008 41.8178 51.6639C41.3503 52.1269 40.7269 52.4099 40.0256 52.4099H32.7529C32.0516 52.4099 31.4282 52.1269 30.9607 51.6639C30.4932 51.2008 30.2075 50.5834 30.2075 49.8889V47.5993C30.2075 46.9047 30.4932 46.2873 30.9607 45.8243C31.4282 45.3612 32.0516 45.0782 32.7529 45.0782H40.0256C40.7269 45.0782 41.3503 45.3612 41.8178 45.8243C42.2854 46.2873 42.5711 46.9047 42.5711 47.5993Z" fill="black"/>
<path fill-rule="evenodd" clip-rule="evenodd" d="M41.4294 42.557V44.8466C41.4294 45.5926 40.806 46.21 40.0528 46.21H32.7801C32.0268 46.21 31.4034 45.5926 31.4034 44.8466V42.557C31.4034 41.811 32.0268 41.1936 32.7801 41.1936H40.0528C40.806 41.1936 41.4294 41.811 41.4294 42.557Z" fill="#F6FC9F"/>
<rect x="43" y="27.0001" width="5" height="8" fill="#F6FC9F"/>
<path d="M42.5711 42.5566V44.8461C42.5711 45.5407 42.2854 46.1581 41.8178 46.6212C41.3503 47.0842 40.7269 47.3672 40.0256 47.3672H32.7529C32.0516 47.3672 31.4282 47.0842 30.9607 46.6212C30.4932 46.1581 30.2075 45.5407 30.2075 44.8461V42.5566C30.2075 41.862 30.4932 41.2446 30.9607 40.7816C31.4282 40.3185 32.0516 40.0355 32.7529 40.0355H40.0256C40.7269 40.0355 41.3503 40.3185 41.8178 40.7816C42.2854 41.2446 42.5711 41.862 42.5711 42.5566ZM40.2594 44.8461V42.5566C40.2594 42.5051 40.2334 42.428 40.1815 42.4022C40.1295 42.3508 40.0776 42.3251 40.0256 42.3251H32.7529C32.701 42.3251 32.623 42.3508 32.5971 42.4022C32.5451 42.4537 32.5191 42.5051 32.5191 42.5566V44.8461C32.5191 44.9233 32.5451 44.9748 32.5711 45.0005C32.623 45.0519 32.675 45.0519 32.7269 45.0519H39.9997C40.0516 45.0519 40.1295 45.0262 40.1555 44.9748C40.2075 44.9233 40.2334 44.8719 40.2334 44.8204L40.2594 44.8461Z" fill="black"/>
<path fill-rule="evenodd" clip-rule="evenodd" d="M46.3639 35.9711C52.0262 35.9711 56.6236 40.5244 56.6236 46.1325C56.6236 51.7406 52.0262 56.294 46.3639 56.294C40.7015 56.294 36.1041 51.7406 36.1041 46.1325C36.1041 40.5244 40.7015 35.9711 46.3639 35.9711Z" fill="#F6FC9F"/>
<path d="M46.3645 34.8394C49.5073 34.8394 52.3645 36.1 54.4424 38.158C56.5203 40.216 57.7931 43.02 57.7931 46.1585C57.7931 49.2712 56.5203 52.101 54.4424 54.159C52.3645 56.217 49.5333 57.4776 46.3645 57.4776C43.2216 57.4776 40.3645 56.217 38.2866 54.159C36.2086 52.101 34.9359 49.2712 34.9359 46.1585C34.9359 43.0457 36.2086 40.216 38.2866 38.158C40.3645 36.1 43.1957 34.8394 46.3645 34.8394ZM52.806 39.7787C51.1697 38.158 48.884 37.129 46.3645 37.129C43.845 37.129 41.5593 38.1322 39.9229 39.7787C38.2866 41.3993 37.2476 43.6632 37.2476 46.1585C37.2476 48.6538 38.2606 50.9177 39.9229 52.5383C41.5853 54.159 43.845 55.188 46.3645 55.188C48.884 55.188 51.1697 54.1848 52.806 52.5383C54.4424 50.9177 55.4814 48.6538 55.4814 46.1585C55.4814 43.6632 54.4684 41.3993 52.806 39.7787Z" fill="black"/>
<path d="M43.3506 40.885C43.3506 40.2419 43.8701 39.7531 44.4934 39.7531C45.1428 39.7531 45.6363 40.2676 45.6363 40.885V51.561C45.6363 52.2041 45.1168 52.6929 44.4934 52.6929C43.8441 52.6929 43.3506 52.1784 43.3506 51.561V40.885Z" fill="black"/>
<path d="M48.1812 47.5478C48.8306 47.5478 49.3241 48.0623 49.3241 48.6797C49.3241 49.3228 48.8046 49.8116 48.1812 49.8116H42.2851C41.6358 49.8116 41.1423 49.2971 41.1423 48.6797C41.1423 48.0366 41.6618 47.5478 42.2851 47.5478H48.1812Z" fill="black"/>
<path fill-rule="evenodd" clip-rule="evenodd" d="M44.5189 44.1264V41.9912C44.5189 41.2966 45.0903 40.705 45.8176 40.705H49.1163C49.8176 40.705 50.415 41.2709 50.415 41.9912V44.1264C50.415 44.821 49.8435 45.4127 49.1163 45.4127H45.8176C45.1163 45.4127 44.5189 44.8467 44.5189 44.1264Z" fill="#F6FC9F"/>
<path d="M43.3506 44.126V41.9908C43.3506 41.3219 43.6363 40.7045 44.0779 40.2672C44.5194 39.8299 45.1428 39.5469 45.8181 39.5469H49.1168C49.7921 39.5469 50.3895 39.8299 50.8311 40.2672C51.2727 40.7045 51.5584 41.3219 51.5584 41.965V44.1002C51.5584 44.7691 51.2727 45.3608 50.8311 45.7981C50.3895 46.2354 49.7662 46.5184 49.1168 46.5184H45.8181C45.1428 46.5184 44.5194 46.2354 44.0779 45.7981C43.6363 45.3608 43.3506 44.7434 43.3506 44.0745V44.126ZM45.6623 41.9908V44.126C45.6623 44.1517 45.6882 44.2031 45.7142 44.2289C45.7402 44.2546 45.7662 44.2803 45.8181 44.2803H49.1168C49.1688 44.2803 49.1947 44.2546 49.2207 44.2546C49.2467 44.2289 49.2467 44.2031 49.2467 44.1517V42.0165C49.2467 41.965 49.2207 41.9393 49.2207 41.9136C49.1947 41.8879 49.1688 41.8879 49.1168 41.8879H45.8181C45.7921 41.8879 45.7402 41.9136 45.7142 41.9393C45.6882 41.965 45.6623 41.9908 45.6623 42.0422V41.9908Z" fill="black"/>
<path fill-rule="evenodd" clip-rule="evenodd" d="M63.1693 14.1047L59.7667 13.2815C59.6109 12.8442 59.4291 12.4068 59.2213 11.9695L60.9875 9.03683C61.2472 8.62523 61.1693 8.05927 60.8316 7.72485L56.2342 3.17149C55.8706 2.81134 55.3252 2.75989 54.9096 3.01714L51.9485 4.76645C51.507 4.56065 51.0654 4.38057 50.6239 4.22622L49.7927 0.856226C49.6628 0.367447 49.2472 0.03302 48.7278 0.03302H42.2083C41.7148 0.03302 41.2732 0.367447 41.1433 0.856226L40.3122 4.22622C39.8706 4.38057 39.4291 4.56065 38.9875 4.76645L36.0265 3.01714C35.6109 2.75989 35.0394 2.83706 34.7018 3.17149L30.1044 7.72485C29.7407 8.085 29.6888 8.62523 29.9485 9.03683L31.7148 11.9695C31.507 12.4068 31.3252 12.8442 31.1693 13.2815L27.7667 14.1047C27.2732 14.2333 26.9355 14.6449 26.9355 15.1594V21.6164C26.9355 22.1052 27.2732 22.5425 27.7667 22.6712L31.1693 23.4944C31.3252 23.9317 31.507 24.369 31.7148 24.8064L29.9485 27.739C29.6888 28.1506 29.7667 28.7166 30.1044 29.051L34.7018 33.6044C35.0654 33.9645 35.6109 34.016 36.0265 33.7587L38.9875 32.0094C39.4291 32.2152 39.8706 32.3953 40.3122 32.5496L41.1433 35.9196C41.2732 36.4084 41.7148 36.7428 42.2083 36.7428H48.7278C49.2213 36.7428 49.6628 36.4084 49.7927 35.9196L50.6239 32.5496C51.0654 32.3953 51.507 32.2152 51.9485 32.0094L54.9096 33.7587C55.3252 34.016 55.8966 33.9388 56.2342 33.6044L60.8316 29.051C61.1953 28.6909 61.2472 28.1506 60.9875 27.739L59.2213 24.8064C59.4291 24.369 59.6109 23.9317 59.7667 23.4944L63.1693 22.6712C63.6628 22.5425 64.0005 22.1309 64.0005 21.6164V15.1594C64.0005 14.6706 63.6628 14.2333 63.1693 14.1047ZM41.5849 19.2754L44.8317 21.4364C45.1953 21.6679 45.6628 21.6679 46.0265 21.4364L49.2732 19.2754C49.5849 19.0696 49.7667 18.7352 49.7667 18.3751V12.201C51.7927 13.5902 53.0135 15.8797 53.0135 18.3751C53.0135 22.5168 49.6109 25.9125 45.4031 25.9125C41.2213 25.9125 37.7927 22.5425 37.7927 18.3751C37.7927 15.854 39.0394 13.5902 41.0394 12.201V18.3751C41.0394 18.7352 41.2213 19.0696 41.5329 19.2754H41.5849ZM45.455 28.0735C46.2083 28.0735 46.9355 27.9963 47.6368 27.8419V34.6077H43.2992V27.8419C44.0005 27.9963 44.7278 28.0735 45.481 28.0735H45.455ZM61.8187 20.7675L58.6758 21.5393C58.3122 21.6164 58.0005 21.8994 57.8966 22.2596C57.6888 22.9541 57.3771 23.6487 57.0135 24.3433C56.8317 24.6777 56.8576 25.0636 57.0394 25.398L58.6758 28.0992L55.2732 31.4692L52.5459 29.8485C52.2342 29.6684 51.8187 29.6427 51.481 29.8228C50.9355 30.1057 50.3641 30.363 49.8187 30.5431V27.0445C53.0394 25.4495 55.2472 22.1567 55.2472 18.3751C55.2472 16.42 54.6498 14.5163 53.533 12.8956C52.442 11.3264 50.9096 10.1173 49.1433 9.39698C48.8057 9.26836 48.4161 9.29408 48.1304 9.49988C47.8187 9.70569 47.6628 10.0401 47.6628 10.4003V17.8091L45.481 19.2497L43.2992 17.8091V10.4003C43.2992 10.0401 43.1174 9.70569 42.8317 9.49988C42.52 9.29408 42.1563 9.26836 41.8187 9.39698C40.0265 10.1173 38.52 11.3264 37.4291 12.8956C36.3122 14.5163 35.7148 16.3942 35.7148 18.3751C35.7148 22.1567 37.9226 25.4495 41.1433 27.0445V30.5431C40.5979 30.3373 40.0265 30.1057 39.481 29.8228C39.1433 29.6427 38.7537 29.6684 38.4161 29.8485L35.6888 31.4692L32.2862 28.0992L33.9226 25.398C34.1044 25.0893 34.1304 24.6777 33.9485 24.3433C33.5849 23.6487 33.2992 22.9541 33.0654 22.2596C32.9615 21.8994 32.6498 21.6164 32.2862 21.5393L29.1433 20.7675V16.0084L32.2862 15.2366C32.6498 15.1594 32.9615 14.8764 33.0654 14.5163C33.2732 13.8217 33.5849 13.1271 33.9485 12.4326C34.1304 12.0981 34.1044 11.7122 33.9226 11.3778L32.2862 8.67668L35.6888 5.30668L38.4161 6.92737C38.7278 7.10744 39.1433 7.13317 39.481 6.95309C40.1823 6.59294 40.8836 6.30996 41.5849 6.07844C41.9485 5.97553 42.2343 5.66683 42.3122 5.30668L43.0914 2.19393H47.8966L48.6758 5.30668C48.7537 5.66683 49.0394 5.97553 49.4031 6.07844C50.1044 6.28424 50.8057 6.59294 51.507 6.95309C51.8446 7.13317 52.2342 7.10744 52.5719 6.92737L55.2992 5.30668L58.7018 8.67668L57.0654 11.3778C56.8836 11.6865 56.8576 12.0981 57.0394 12.4326C57.4031 13.1271 57.6888 13.8217 57.9226 14.5163C58.0265 14.8764 58.3381 15.1594 58.7018 15.2366L61.8446 16.0084V20.7675H61.8187Z" fill="black"/>
</svg>
